<svg width="25" height="21" viewBox="0 0 25 21" fill="none" xmlns="http://www.w3.org/2000/svg">
<path d="M25 10.2645C25 10.8398 24.5725 11.3153 24.0178 11.3905L23.8636 11.4009L3.88788 11.4L11.1045 18.5872C11.5493 19.03 11.5508 19.7495 11.108 20.1942C10.7054 20.5985 10.0742 20.6366 9.62862 20.3074L9.50093 20.1977L0.334263 11.0704C0.275641 11.012 0.224723 10.9489 0.181508 10.8822C0.169302 10.8621 0.156877 10.8415 0.145097 10.8206C0.134263 10.8026 0.124472 10.784 0.115236 10.7651C0.102407 10.7377 0.0898731 10.7093 0.0784934 10.6804C0.0692467 10.6581 0.0615262 10.6364 0.0544839 10.6145C0.0461117 10.5874 0.0379772 10.5585 0.0309802 10.5292C0.0257784 10.5087 0.0216586 10.489 0.0180651 10.4692C0.0130118 10.4398 0.00871046 10.4093 0.00564137 10.3785C0.00299137 10.355 0.00139631 10.3317 0.000514645 10.3084C0.000286766 10.2942 2.38419e-07 10.2794 2.38419e-07 10.2645L0.000569553 10.2205C0.00144061 10.1982 0.00296383 10.1759 0.00514141 10.1537L2.38419e-07 10.2645C2.38419e-07 10.1928 0.0066425 10.1227 0.0193454 10.0546C0.0222913 10.0384 0.0258016 10.0217 0.0296884 10.0051C0.0377607 9.97091 0.0470893 9.93796 0.0578305 9.90567C0.0631026 9.88962 0.0692443 9.87248 0.0758087 9.85546C0.0890881 9.82127 0.103522 9.78867 0.1194 9.75693C0.126777 9.742 0.135039 9.72637 0.14369 9.71089C0.157891 9.68566 0.17252 9.66167 0.18799 9.63829C0.198904 9.62175 0.21099 9.60452 0.223611 9.58757L0.233445 9.57447C0.264061 9.53448 0.297274 9.49657 0.332833 9.46101L0.334197 9.45996L9.50086 0.331171C9.94556 -0.111687 10.6651 -0.110197 11.1079 0.334499C11.5105 0.738767 11.5459 1.37015 11.2149 1.81433L11.1046 1.94156L3.89091 9.12727L23.8636 9.12818C24.4912 9.12818 25 9.63695 25 10.2645Z" fill="#ED5D2F"/>
</svg>
