<svg width="25" height="21" viewBox="0 0 25 21" fill="none" xmlns="http://www.w3.org/2000/svg">
<path d="M25 10.2645C25 10.8398 24.5725 11.3153 24.0178 11.3905L23.8636 11.4009L3.88788 11.4L11.1045 18.5872C11.5493 19.03 11.5508 19.7495 11.108 20.1942C10.7054 20.5985 10.0742 20.6366 9.62862 20.3074L9.50093 20.1977L0.334263 11.0704C0.27564 11.012 0.224722 10.9489 0.181507 10.8822C0.169302 10.8621 0.156878 10.8415 0.145098 10.8206C0.134262 10.8026 0.124472 10.784 0.115236 10.7651C0.102407 10.7377 0.0898724 10.7093 0.0784931 10.6804C0.0692463 10.6581 0.0615253 10.6364 0.0544834 10.6145C0.0461121 10.5874 0.0379772 10.5585 0.0309811 10.5292C0.0257778 10.5087 0.0216579 10.489 0.0180645 10.4692C0.0130119 10.4398 0.00871086 10.4093 0.00564194 10.3785C0.00299072 10.355 0.00139618 10.3317 0.000514984 10.3084C0.000286102 10.2942 0 10.2794 0 10.2645L0.000570297 10.2205C0.00144005 10.1982 0.00296402 10.1759 0.00514221 10.1537L0 10.2645C0 10.1928 0.0066433 10.1227 0.0193462 10.0546C0.0222912 10.0384 0.0258007 10.0217 0.0296879 10.0051C0.0377598 9.97091 0.0470886 9.93797 0.0578308 9.90567C0.0631027 9.88962 0.0692444 9.87248 0.0758095 9.85546C0.0890884 9.82127 0.103521 9.78868 0.1194 9.75693C0.126778 9.742 0.135038 9.72637 0.14369 9.71089C0.15789 9.68566 0.17252 9.66167 0.18799 9.63829C0.198904 9.62175 0.210991 9.60452 0.22361 9.58757L0.233446 9.57447C0.264061 9.53448 0.297274 9.49657 0.332832 9.46101L0.334196 9.45996L9.50086 0.331171C9.94556 -0.111687 10.6651 -0.110197 11.1079 0.334498C11.5105 0.738767 11.5459 1.37015 11.2149 1.81433L11.1046 1.94156L3.89091 9.12727L23.8636 9.12818C24.4912 9.12818 25 9.63695 25 10.2645Z" fill="#2E89DD"/>
</svg>
