<svg width="28" height="30" viewBox="0 0 28 30" fill="none" xmlns="http://www.w3.org/2000/svg">
<path fill-rule="evenodd" clip-rule="evenodd" d="M24.5773 10.0797C25.1968 10.1307 25.6588 10.6722 25.6093 11.2917C25.6003 11.3937 24.7873 21.4604 24.3193 25.6829C24.0283 28.3035 22.2972 29.898 19.6842 29.946C17.6847 29.9805 15.7556 30 13.8701 30C11.8376 30 9.85605 29.9775 7.89552 29.937C5.38748 29.8875 3.65195 28.2615 3.36845 25.6934C2.89594 21.4334 2.08743 11.3922 2.07993 11.2917C2.02893 10.6722 2.49094 10.1292 3.11045 10.0797C3.72096 10.0632 4.27296 10.4922 4.32246 11.1102C4.32725 11.1753 4.65778 15.2758 5.01797 19.3329L5.09031 20.1425C5.27173 22.1591 5.45562 24.0969 5.60498 25.4459C5.76549 26.9055 6.553 27.6585 7.94202 27.687C11.6921 27.7665 15.5186 27.771 19.6437 27.696C21.1197 27.6675 21.9177 26.9295 22.0827 25.4354C22.5477 21.2444 23.3577 11.2122 23.3667 11.1102C23.4162 10.4922 23.9638 10.0602 24.5773 10.0797ZM17.0184 0C18.3954 0 19.6059 0.928514 19.9614 2.25903L20.3424 4.15056C20.4655 4.77063 21.0097 5.22346 21.6397 5.23341L26.5624 5.23358C27.1834 5.23358 27.6874 5.73759 27.6874 6.35859C27.6874 6.9796 27.1834 7.48361 26.5624 7.48361L21.6837 7.48339C21.6761 7.48354 21.6685 7.48361 21.6609 7.48361L21.6243 7.48211L6.06252 7.48343C6.05042 7.48355 6.03831 7.48361 6.02619 7.48361L6.00309 7.48211L1.12502 7.48361C0.504008 7.48361 0 6.9796 0 6.35859C0 5.73759 0.504008 5.23358 1.12502 5.23358L6.04659 5.23208L6.19812 5.22249C6.76256 5.14925 7.23166 4.72057 7.34621 4.15056L7.71072 2.32653C8.08122 0.928514 9.29174 0 10.6688 0H17.0184ZM17.0184 2.25003H10.6688C10.3088 2.25003 9.99225 2.49154 9.90075 2.83804L9.55124 4.59307C9.50682 4.81537 9.44214 5.0296 9.35937 5.23398H18.3282C18.2453 5.0296 18.1805 4.81537 18.1359 4.59307L17.7714 2.76904C17.6949 2.49154 17.3784 2.25003 17.0184 2.25003Z" fill="#FC5050"/>
</svg>
