<svg width="184" height="56" viewBox="0 0 184 56" fill="none" xmlns="http://www.w3.org/2000/svg">
<path d="M20 16.042C20 17.154 19.097 18.056 18 18.056C16.903 18.056 16 17.154 16 16.042V12.014C16 10.901 16.903 10 18 10C19.097 10 20 10.901 20 12.014V16.042Z" fill="#FFCC4D"/>
<path d="M9.17993 45.9998C8.95593 45.9998 8.72793 45.9478 8.51393 45.8408C7.77794 45.4668 7.47894 44.5608 7.84694 43.8138L16.7869 25.6869C17.0389 25.1749 17.5549 24.8519 18.1199 24.8519C18.6849 24.8519 19.2009 25.1749 19.4529 25.6869L28.3938 43.8138C28.7618 44.5608 28.4638 45.4668 27.7278 45.8408C26.9918 46.2128 26.0968 45.9108 25.7288 45.1648L18.1209 29.7399L10.5139 45.1648C10.2519 45.6938 9.72593 45.9998 9.17993 45.9998Z" fill="#FFAC33"/>
<path d="M18.1209 30.3919C17.8579 30.3919 17.6049 30.2859 17.4189 30.0969L3.51195 15.998C3.12395 15.604 3.12395 14.967 3.51195 14.574C3.89994 14.181 4.52894 14.181 4.91594 14.574L18.1209 27.9599L31.3238 14.573C31.7128 14.18 32.3408 14.18 32.7288 14.573C33.1168 14.967 33.1168 15.604 32.7288 15.997L18.8239 30.0969C18.6369 30.2849 18.3849 30.3919 18.1209 30.3919V30.3919Z" fill="#58595B"/>
<path d="M34.0149 29.3849C34.0149 38.2829 26.8999 45.4958 18.1209 45.4958C9.34399 45.4958 2.22803 38.2829 2.22803 29.3849C2.22803 20.485 9.34399 13.272 18.1209 13.272C26.8989 13.271 34.0149 20.485 34.0149 29.3849Z" fill="#2E89DD"/>
<path d="M30.041 29.3849C30.041 36.0589 24.706 41.4688 18.1211 41.4688C11.5381 41.4688 6.20215 36.0589 6.20215 29.3849C6.20215 22.7099 11.5381 17.3 18.1211 17.3C24.706 17.299 30.041 22.7099 30.041 29.3849V29.3849Z" fill="#E6E7E8"/>
<path d="M30.0398 11.257C28.3938 11.257 26.9049 11.933 25.8259 13.027L34.2548 21.5709C35.3328 20.4779 35.9998 18.9679 35.9998 17.299C35.9998 13.963 33.3308 11.257 30.0398 11.257V11.257ZM5.95997 11.257C7.60496 11.257 9.09495 11.933 10.1739 13.027L1.74499 21.5709C0.666996 20.4779 0 18.9679 0 17.299C0 13.963 2.66799 11.257 5.95997 11.257V11.257Z" fill="#FFCC4D"/>
<path d="M23 29.9999H18C17.448 29.9999 17 29.5529 17 28.9999V19.9999C17 19.4479 17.448 18.9999 18 18.9999C18.552 18.9999 19 19.4479 19 19.9999V27.9999H23C23.553 27.9999 24 28.4479 24 28.9999C24 29.5529 23.553 29.9999 23 29.9999Z" fill="#414042"/>
<path d="M67.32 31.908C67.32 34.404 66.432 36.216 64.656 37.344C62.904 38.448 60.528 39 57.528 39H47.664V13.8H56.952C58.68 13.8 60.216 14.04 61.56 14.52C62.904 14.976 63.96 15.684 64.728 16.644C65.496 17.58 65.88 18.768 65.88 20.208C65.88 21.432 65.556 22.488 64.908 23.376C64.26 24.264 63.372 24.96 62.244 25.464C63.684 25.968 64.884 26.748 65.844 27.804C66.828 28.836 67.32 30.204 67.32 31.908ZM56.268 18.516H53.748V23.808H56.268C57.324 23.808 58.14 23.568 58.716 23.088C59.292 22.608 59.58 21.948 59.58 21.108C59.58 20.268 59.292 19.632 58.716 19.2C58.14 18.744 57.324 18.516 56.268 18.516ZM53.748 34.284H56.844C58.02 34.284 59.004 34.044 59.796 33.564C60.612 33.084 61.02 32.244 61.02 31.044C61.02 29.94 60.612 29.172 59.796 28.74C59.004 28.284 58.02 28.056 56.844 28.056H53.748V34.284ZM76.7543 32.52C76.7543 33.48 76.9223 34.224 77.2583 34.752C77.6183 35.28 78.2423 35.544 79.1303 35.544C79.9943 35.544 80.6903 35.28 81.2183 34.752C81.7463 34.224 82.0103 33.48 82.0103 32.52V22.44H87.4823V39H82.0103V36.516C81.5303 37.404 80.8703 38.112 80.0303 38.64C79.2143 39.144 78.1943 39.396 76.9703 39.396C74.9303 39.396 73.4303 38.844 72.4703 37.74C71.5103 36.612 71.0303 35.064 71.0303 33.096V22.44H76.7543V32.52ZM91.4133 16.248C91.4133 15.384 91.7133 14.676 92.3133 14.124C92.9373 13.572 93.6933 13.296 94.5813 13.296C95.4693 13.296 96.2133 13.572 96.8133 14.124C97.4373 14.676 97.7493 15.384 97.7493 16.248C97.7493 17.112 97.4373 17.82 96.8133 18.372C96.2133 18.9 95.4693 19.164 94.5813 19.164C93.6933 19.164 92.9373 18.9 92.3133 18.372C91.7133 17.82 91.4133 17.112 91.4133 16.248ZM91.9173 22.44H97.2093V39H91.9173V22.44ZM101.687 10.92H107.159V39H101.687V10.92ZM110.418 30.72C110.418 28.848 110.79 27.276 111.534 26.004C112.278 24.708 113.25 23.736 114.45 23.088C115.65 22.416 116.922 22.08 118.266 22.08C120.714 22.08 122.61 23.088 123.954 25.104V10.92H129.39V39H123.954V36.336C122.61 38.352 120.714 39.36 118.266 39.36C116.922 39.36 115.65 39.036 114.45 38.388C113.25 37.716 112.278 36.732 111.534 35.436C110.79 34.14 110.418 32.568 110.418 30.72ZM116.142 30.72C116.142 32.016 116.526 33.048 117.294 33.816C118.086 34.584 119.022 34.968 120.102 34.968C120.726 34.968 121.326 34.8 121.902 34.464C122.502 34.128 122.994 33.648 123.378 33.024C123.762 32.376 123.954 31.608 123.954 30.72C123.954 29.808 123.762 29.04 123.378 28.416C122.994 27.792 122.502 27.312 121.902 26.976C121.326 26.64 120.726 26.472 120.102 26.472C119.022 26.472 118.086 26.856 117.294 27.624C116.526 28.392 116.142 29.424 116.142 30.72ZM142.033 39.36C140.089 39.36 138.409 39.012 136.993 38.316C135.601 37.596 134.521 36.588 133.753 35.292C132.985 33.996 132.601 32.472 132.601 30.72C132.601 28.032 133.429 25.92 135.085 24.384C136.741 22.848 139.021 22.08 141.925 22.08C144.781 22.08 146.977 22.812 148.513 24.276C150.073 25.74 150.853 27.804 150.853 30.468C150.853 30.732 150.853 30.984 150.853 31.224C150.853 31.464 150.841 31.68 150.817 31.872H138.181C138.325 33 138.721 33.876 139.369 34.5C140.017 35.124 140.869 35.436 141.925 35.436C143.845 35.436 145.213 34.716 146.029 33.276L150.925 34.464C149.173 37.728 146.209 39.36 142.033 39.36ZM141.817 25.716C139.849 25.716 138.661 26.76 138.253 28.848H145.021C144.925 27.888 144.589 27.132 144.013 26.58C143.461 26.004 142.729 25.716 141.817 25.716ZM164.362 28.092C164.074 27.804 163.762 27.576 163.426 27.408C163.114 27.24 162.718 27.156 162.238 27.156C161.446 27.156 160.798 27.468 160.294 28.092C159.814 28.716 159.574 29.628 159.574 30.828V39H154.21V22.44H159.574V24.528C160.102 23.76 160.726 23.16 161.446 22.728C162.19 22.272 162.958 22.044 163.75 22.044C164.35 22.044 164.926 22.176 165.478 22.44C166.03 22.68 166.45 23.004 166.738 23.412L164.362 28.092ZM169.911 32.988C171.183 34.044 172.263 34.764 173.151 35.148C174.063 35.508 174.807 35.688 175.383 35.688C176.463 35.688 177.003 35.256 177.003 34.392C177.003 33.864 176.751 33.444 176.247 33.132C175.743 32.796 174.819 32.412 173.475 31.98C172.707 31.716 171.963 31.38 171.243 30.972C170.523 30.564 169.935 30.024 169.479 29.352C169.023 28.68 168.795 27.816 168.795 26.76C168.795 25.248 169.383 24.096 170.559 23.304C171.735 22.488 173.211 22.08 174.987 22.08C176.403 22.08 177.699 22.32 178.875 22.8C180.051 23.256 181.119 23.832 182.079 24.528L180.135 28.092C179.463 27.444 178.671 26.904 177.759 26.472C176.871 26.04 176.055 25.824 175.311 25.824C174.831 25.824 174.459 25.92 174.195 26.112C173.955 26.304 173.835 26.556 173.835 26.868C173.835 27.42 174.159 27.828 174.807 28.092C175.479 28.356 176.427 28.728 177.651 29.208C178.515 29.52 179.307 29.88 180.027 30.288C180.747 30.696 181.323 31.212 181.755 31.836C182.211 32.46 182.439 33.288 182.439 34.32C182.439 36.072 181.899 37.404 180.819 38.316C179.739 39.228 178.203 39.684 176.211 39.684C174.411 39.684 172.815 39.396 171.423 38.82C170.031 38.22 168.771 37.476 167.643 36.588L169.911 32.988Z" fill="url(#paint0_linear_56_19)"/>
<path d="M52.892 49.284C53.332 49.476 53.672 49.744 53.912 50.088C54.152 50.424 54.272 50.828 54.272 51.3C54.272 52.132 53.992 52.792 53.432 53.28C52.872 53.76 52.104 54 51.128 54H47.996L48.08 52.2V46.74L47.996 45H51.14C51.684 45 52.156 45.108 52.556 45.324C52.956 45.532 53.264 45.828 53.48 46.212C53.704 46.596 53.816 47.04 53.816 47.544C53.816 47.928 53.736 48.268 53.576 48.564C53.424 48.86 53.196 49.1 52.892 49.284ZM49.316 46.176V48.78H50.756C51.38 48.78 51.828 48.684 52.1 48.492C52.38 48.292 52.52 47.976 52.52 47.544C52.52 47.088 52.38 46.748 52.1 46.524C51.82 46.292 51.38 46.176 50.78 46.176H49.316ZM51.128 52.824C51.72 52.824 52.176 52.692 52.496 52.428C52.816 52.156 52.976 51.78 52.976 51.3C52.976 50.836 52.828 50.496 52.532 50.28C52.244 50.064 51.784 49.956 51.152 49.956H49.316V52.824H51.128ZM55.4996 51.996C55.4996 51.524 55.6036 51.104 55.8116 50.736C56.0276 50.36 56.3196 50.068 56.6876 49.86C57.0636 49.652 57.4796 49.548 57.9356 49.548C58.2956 49.548 58.6516 49.584 59.0036 49.656C59.3636 49.728 59.6476 49.824 59.8556 49.944V49.236C59.8556 48.748 59.7236 48.388 59.4596 48.156C59.2036 47.924 58.8036 47.808 58.2596 47.808C57.7716 47.808 57.3316 47.9 56.9396 48.084C56.5556 48.26 56.2556 48.512 56.0396 48.84L55.9076 48.816L56.0756 47.46C56.3476 47.196 56.6876 46.992 57.0956 46.848C57.5116 46.704 57.9596 46.632 58.4396 46.632C59.2636 46.632 59.9036 46.836 60.3596 47.244C60.8236 47.644 61.0556 48.22 61.0556 48.972V52.212L61.1396 54H59.8916L59.8556 53.28C59.7116 53.52 59.4396 53.732 59.0396 53.916C58.6396 54.1 58.2316 54.192 57.8156 54.192C57.0876 54.192 56.5196 54 56.1116 53.616C55.7036 53.224 55.4996 52.684 55.4996 51.996ZM56.7476 51.888C56.7476 52.32 56.8396 52.628 57.0236 52.812C57.2156 52.996 57.5436 53.088 58.0076 53.088C58.3196 53.088 58.6636 53.02 59.0396 52.884C59.4236 52.748 59.6956 52.592 59.8556 52.416V51.06C59.6636 50.94 59.3956 50.84 59.0516 50.76C58.7076 50.68 58.3596 50.64 58.0076 50.64C57.5676 50.64 57.2476 50.744 57.0476 50.952C56.8476 51.16 56.7476 51.472 56.7476 51.888ZM67.04 52.2V49.032C67.04 48.216 66.676 47.808 65.948 47.808C65.644 47.808 65.324 47.896 64.988 48.072C64.652 48.24 64.396 48.464 64.22 48.744V52.2L64.304 54H62.936L63.02 52.2V48.54L62.936 46.8H63.98L64.22 47.76C64.436 47.432 64.74 47.176 65.132 46.992C65.532 46.808 65.96 46.716 66.416 46.716C66.984 46.716 67.428 46.896 67.748 47.256C68.076 47.608 68.24 48.108 68.24 48.756V52.2L68.324 54H66.956L67.04 52.2ZM72.7836 54.192C70.8636 54.192 69.9036 52.948 69.9036 50.46C69.9036 49.236 70.1476 48.296 70.6356 47.64C71.1316 46.984 71.8596 46.656 72.8196 46.656C73.3236 46.656 73.7236 46.7 74.0196 46.788C74.3236 46.868 74.6156 47.012 74.8956 47.22L74.7036 48.288L74.5116 48.372C74.3196 48.18 74.1036 48.044 73.8636 47.964C73.6236 47.876 73.3236 47.832 72.9636 47.832C72.3236 47.832 71.8596 48.04 71.5716 48.456C71.2916 48.872 71.1516 49.54 71.1516 50.46C71.1516 51.084 71.2116 51.58 71.3316 51.948C71.4516 52.316 71.6476 52.584 71.9196 52.752C72.1916 52.92 72.5596 53.004 73.0236 53.004C73.4316 53.004 73.7596 52.96 74.0076 52.872C74.2556 52.784 74.5196 52.624 74.7996 52.392L75.0036 52.488L74.7396 53.556C74.4276 53.796 74.1316 53.96 73.8516 54.048C73.5716 54.144 73.2156 54.192 72.7836 54.192ZM79.2786 54.192C78.2466 54.192 77.4866 53.88 76.9986 53.256C76.5186 52.624 76.2786 51.668 76.2786 50.388C76.2786 49.108 76.5186 48.16 76.9986 47.544C77.4866 46.92 78.2466 46.608 79.2786 46.608C80.3106 46.608 81.0666 46.92 81.5466 47.544C82.0346 48.16 82.2786 49.108 82.2786 50.388C82.2786 51.668 82.0346 52.624 81.5466 53.256C81.0666 53.88 80.3106 54.192 79.2786 54.192ZM79.2786 53.016C79.7346 53.016 80.0866 52.936 80.3346 52.776C80.5906 52.616 80.7706 52.352 80.8746 51.984C80.9786 51.608 81.0306 51.08 81.0306 50.4C81.0306 49.72 80.9786 49.196 80.8746 48.828C80.7706 48.452 80.5906 48.184 80.3346 48.024C80.0866 47.864 79.7346 47.784 79.2786 47.784C78.8226 47.784 78.4666 47.864 78.2106 48.024C77.9626 48.184 77.7866 48.452 77.6826 48.828C77.5786 49.196 77.5266 49.72 77.5266 50.4C77.5266 51.08 77.5786 51.608 77.6826 51.984C77.7866 52.352 77.9626 52.616 78.2106 52.776C78.4666 52.936 78.8226 53.016 79.2786 53.016ZM91.971 52.212L92.043 54H90.807L90.759 53.244C90.591 53.508 90.359 53.716 90.063 53.868C89.767 54.02 89.459 54.096 89.139 54.096C88.267 54.096 87.595 53.784 87.123 53.16C86.659 52.528 86.427 51.604 86.427 50.388C86.427 49.1 86.643 48.156 87.075 47.556C87.515 46.956 88.183 46.656 89.079 46.656C89.767 46.656 90.331 46.812 90.771 47.124V46.14L90.687 44.4H92.043L91.971 46.14V52.212ZM89.259 52.944C89.939 52.944 90.443 52.772 90.771 52.428V48.072C90.443 47.904 89.979 47.82 89.379 47.82C88.939 47.82 88.595 47.896 88.347 48.048C88.107 48.2 87.935 48.46 87.831 48.828C87.727 49.196 87.675 49.716 87.675 50.388C87.675 51.308 87.799 51.964 88.047 52.356C88.295 52.748 88.699 52.944 89.259 52.944ZM96.6921 54.144C95.6281 54.144 94.8641 53.832 94.4001 53.208C93.9441 52.576 93.7161 51.636 93.7161 50.388C93.7161 49.172 93.9601 48.24 94.4481 47.592C94.9361 46.936 95.6841 46.608 96.6921 46.608C97.6441 46.608 98.3481 46.86 98.8041 47.364C99.2681 47.86 99.5401 48.668 99.6201 49.788L99.3201 50.94H94.9881C95.0041 51.436 95.0721 51.832 95.1921 52.128C95.3201 52.416 95.5201 52.632 95.7921 52.776C96.0641 52.92 96.4401 52.992 96.9201 52.992C97.4081 52.992 97.8441 52.94 98.2281 52.836C98.6201 52.724 98.9481 52.572 99.2121 52.38L99.4161 52.476L99.1521 53.532C98.8561 53.748 98.5201 53.904 98.1441 54C97.7681 54.096 97.2841 54.144 96.6921 54.144ZM98.3721 49.932C98.3721 49.164 98.2441 48.616 97.9881 48.288C97.7401 47.952 97.3241 47.784 96.7401 47.784C96.3161 47.784 95.9761 47.856 95.7201 48C95.4721 48.136 95.2881 48.36 95.1681 48.672C95.0561 48.984 94.9921 49.404 94.9761 49.932H98.3721ZM107.974 52.2V49.032C107.974 48.216 107.61 47.808 106.882 47.808C106.578 47.808 106.258 47.896 105.922 48.072C105.586 48.24 105.33 48.464 105.154 48.744V52.2L105.238 54H103.87L103.954 52.2V46.14L103.87 44.4H105.238L105.154 46.14V47.76C105.37 47.432 105.674 47.176 106.066 46.992C106.466 46.808 106.894 46.716 107.35 46.716C107.918 46.716 108.362 46.896 108.682 47.256C109.01 47.608 109.174 48.108 109.174 48.756V52.2L109.258 54H107.89L107.974 52.2ZM113.837 54.192C112.805 54.192 112.045 53.88 111.557 53.256C111.077 52.624 110.837 51.668 110.837 50.388C110.837 49.108 111.077 48.16 111.557 47.544C112.045 46.92 112.805 46.608 113.837 46.608C114.869 46.608 115.625 46.92 116.105 47.544C116.593 48.16 116.837 49.108 116.837 50.388C116.837 51.668 116.593 52.624 116.105 53.256C115.625 53.88 114.869 54.192 113.837 54.192ZM113.837 53.016C114.293 53.016 114.645 52.936 114.893 52.776C115.149 52.616 115.329 52.352 115.433 51.984C115.537 51.608 115.589 51.08 115.589 50.4C115.589 49.72 115.537 49.196 115.433 48.828C115.329 48.452 115.149 48.184 114.893 48.024C114.645 47.864 114.293 47.784 113.837 47.784C113.381 47.784 113.025 47.864 112.769 48.024C112.521 48.184 112.345 48.452 112.241 48.828C112.137 49.196 112.085 49.72 112.085 50.4C112.085 51.08 112.137 51.608 112.241 51.984C112.345 52.352 112.521 52.616 112.769 52.776C113.025 52.936 113.381 53.016 113.837 53.016ZM121.435 46.716C122.011 46.716 122.411 46.772 122.635 46.884L122.443 47.94L122.287 48.048C122.191 47.976 122.035 47.916 121.819 47.868C121.603 47.82 121.383 47.796 121.159 47.796C120.567 47.796 120.103 48.04 119.767 48.528V52.2L119.851 54H118.483L118.567 52.2V48.54L118.483 46.8H119.527L119.743 47.616C119.943 47.328 120.191 47.108 120.487 46.956C120.783 46.796 121.099 46.716 121.435 46.716ZM123.433 51.996C123.433 51.524 123.537 51.104 123.745 50.736C123.961 50.36 124.253 50.068 124.621 49.86C124.997 49.652 125.413 49.548 125.869 49.548C126.229 49.548 126.585 49.584 126.937 49.656C127.297 49.728 127.581 49.824 127.789 49.944V49.236C127.789 48.748 127.657 48.388 127.393 48.156C127.137 47.924 126.737 47.808 126.193 47.808C125.705 47.808 125.265 47.9 124.873 48.084C124.489 48.26 124.189 48.512 123.973 48.84L123.841 48.816L124.009 47.46C124.281 47.196 124.621 46.992 125.029 46.848C125.445 46.704 125.893 46.632 126.373 46.632C127.197 46.632 127.837 46.836 128.293 47.244C128.757 47.644 128.989 48.22 128.989 48.972V52.212L129.073 54H127.825L127.789 53.28C127.645 53.52 127.373 53.732 126.973 53.916C126.573 54.1 126.165 54.192 125.749 54.192C125.021 54.192 124.453 54 124.045 53.616C123.637 53.224 123.433 52.684 123.433 51.996ZM124.681 51.888C124.681 52.32 124.773 52.628 124.957 52.812C125.149 52.996 125.477 53.088 125.941 53.088C126.253 53.088 126.597 53.02 126.973 52.884C127.357 52.748 127.629 52.592 127.789 52.416V51.06C127.597 50.94 127.329 50.84 126.985 50.76C126.641 50.68 126.293 50.64 125.941 50.64C125.501 50.64 125.181 50.744 124.981 50.952C124.781 51.16 124.681 51.472 124.681 51.888ZM133.246 54.12C132.726 54.12 132.278 54.048 131.902 53.904C131.534 53.76 131.174 53.516 130.822 53.172L130.654 52.044L130.822 51.996C131.598 52.62 132.386 52.932 133.186 52.932C134.09 52.932 134.542 52.68 134.542 52.176C134.542 51.992 134.494 51.84 134.398 51.72C134.302 51.592 134.13 51.468 133.882 51.348C133.634 51.22 133.262 51.068 132.766 50.892C132.246 50.708 131.842 50.524 131.554 50.34C131.274 50.156 131.074 49.944 130.954 49.704C130.842 49.456 130.786 49.148 130.786 48.78C130.786 48.1 130.998 47.576 131.422 47.208C131.854 46.832 132.47 46.644 133.27 46.644C133.758 46.644 134.186 46.704 134.554 46.824C134.93 46.936 135.27 47.116 135.574 47.364L135.37 48.492L135.19 48.54C135.022 48.324 134.758 48.152 134.398 48.024C134.046 47.888 133.686 47.82 133.318 47.82C132.894 47.82 132.57 47.892 132.346 48.036C132.13 48.18 132.022 48.384 132.022 48.648C132.022 48.848 132.07 49.012 132.166 49.14C132.262 49.268 132.43 49.392 132.67 49.512C132.91 49.624 133.27 49.76 133.75 49.92C134.494 50.16 135.018 50.44 135.322 50.76C135.626 51.08 135.778 51.516 135.778 52.068C135.778 52.732 135.562 53.24 135.13 53.592C134.706 53.944 134.078 54.12 133.246 54.12Z" fill="#2E89DD"/>
<defs>
<linearGradient id="paint0_linear_56_19" x1="45" y1="26" x2="184" y2="26" gradientUnits="userSpaceOnUse">
<stop stop-color="#2E89DD"/>
<stop offset="1" stop-color="#D22FED"/>
</linearGradient>
</defs>
</svg>
