<svg width="552" height="92" viewBox="0 0 552 92" fill="none" xmlns="http://www.w3.org/2000/svg">
<path d="M115.68 55.392C115.68 59.8293 114.101 63.0507 110.944 65.056C107.829 67.0187 103.605 68 98.272 68H80.736V23.2H97.248C100.32 23.2 103.051 23.6267 105.44 24.48C107.829 25.2907 109.707 26.5493 111.072 28.256C112.437 29.92 113.12 32.032 113.12 34.592C113.12 36.768 112.544 38.6453 111.392 40.224C110.24 41.8027 108.661 43.04 106.656 43.936C109.216 44.832 111.349 46.2187 113.056 48.096C114.805 49.9307 115.68 52.3627 115.68 55.392ZM96.032 31.584H91.552V40.992H96.032C97.9093 40.992 99.36 40.5653 100.384 39.712C101.408 38.8587 101.92 37.6853 101.92 36.192C101.92 34.6987 101.408 33.568 100.384 32.8C99.36 31.9893 97.9093 31.584 96.032 31.584ZM91.552 59.616H97.056C99.1467 59.616 100.896 59.1893 102.304 58.336C103.755 57.4827 104.48 55.9893 104.48 53.856C104.48 51.8933 103.755 50.528 102.304 49.76C100.896 48.9493 99.1467 48.544 97.056 48.544H91.552V59.616ZM125.476 47.584L122.212 41.12C123.919 40.3093 125.924 39.5413 128.228 38.816C130.575 38.0907 133.135 37.728 135.908 37.728C138.511 37.728 140.836 38.112 142.884 38.88C144.932 39.6053 146.553 40.672 147.748 42.08C148.943 43.488 149.54 45.216 149.54 47.264V68H140.26V63.968C139.364 65.504 138.02 66.6773 136.228 67.488C134.479 68.256 132.58 68.64 130.532 68.64C128.655 68.64 126.905 68.2987 125.284 67.616C123.705 66.8907 122.425 65.824 121.444 64.416C120.505 63.008 120.036 61.3013 120.036 59.296C120.036 56.48 121.017 54.2613 122.98 52.64C124.985 50.976 127.844 50.144 131.556 50.144C133.348 50.144 134.991 50.336 136.484 50.72C137.977 51.0613 139.236 51.488 140.26 52V49.44C140.26 46.5387 138.404 45.088 134.692 45.088C133.412 45.088 132.132 45.2373 130.852 45.536C129.572 45.8347 128.441 46.1973 127.46 46.624C126.521 47.008 125.86 47.328 125.476 47.584ZM129.828 58.784C129.828 59.936 130.212 60.832 130.98 61.472C131.791 62.0693 132.793 62.368 133.988 62.368C135.567 62.368 136.975 61.8987 138.212 60.96C139.449 59.9787 140.132 58.528 140.26 56.608C138.511 55.84 136.612 55.456 134.564 55.456C132.857 55.456 131.641 55.7547 130.916 56.352C130.191 56.9067 129.828 57.7173 129.828 58.784ZM175.912 50.08C175.912 48.3307 175.592 47.008 174.952 46.112C174.312 45.1733 173.203 44.704 171.624 44.704C170.088 44.704 168.851 45.1733 167.912 46.112C166.973 47.008 166.504 48.3307 166.504 50.08V68H156.776V38.56H166.504V42.976C167.357 41.3547 168.509 40.096 169.96 39.2C171.453 38.304 173.288 37.856 175.464 37.856C179.133 37.856 181.8 38.8373 183.464 40.8C185.171 42.7627 186.024 45.5147 186.024 49.056V68H175.912V50.08ZM201.717 53.28C201.717 55.6267 202.485 57.4827 204.021 58.848C205.557 60.2133 207.413 60.896 209.589 60.896C211.338 60.896 213.002 60.5333 214.581 59.808C216.159 59.04 217.375 57.952 218.229 56.544V65.952C217.205 66.7627 215.925 67.424 214.389 67.936C212.853 68.4053 210.975 68.64 208.757 68.64C205.471 68.64 202.549 68 199.989 66.72C197.429 65.44 195.402 63.648 193.909 61.344C192.458 59.04 191.733 56.352 191.733 53.28C191.733 50.1653 192.458 47.4773 193.909 45.216C195.402 42.912 197.429 41.12 199.989 39.84C202.549 38.56 205.471 37.92 208.757 37.92C210.975 37.92 212.853 38.176 214.389 38.688C215.925 39.1573 217.205 39.7547 218.229 40.48V49.952C217.375 48.544 216.117 47.4773 214.453 46.752C212.789 46.0267 211.167 45.664 209.589 45.664C208.138 45.664 206.815 46.0053 205.621 46.688C204.426 47.328 203.466 48.224 202.741 49.376C202.058 50.528 201.717 51.8293 201.717 53.28ZM223.423 53.28C223.423 50.1653 224.148 47.456 225.599 45.152C227.092 42.848 229.098 41.056 231.615 39.776C234.175 38.496 237.055 37.856 240.255 37.856C243.498 37.856 246.378 38.496 248.895 39.776C251.412 41.056 253.396 42.848 254.847 45.152C256.34 47.456 257.087 50.1653 257.087 53.28C257.087 56.352 256.34 59.04 254.847 61.344C253.396 63.648 251.412 65.44 248.895 66.72C246.378 68 243.498 68.64 240.255 68.64C237.055 68.64 234.175 68 231.615 66.72C229.098 65.44 227.092 63.648 225.599 61.344C224.148 59.04 223.423 56.352 223.423 53.28ZM233.407 53.28C233.407 55.5413 234.068 57.3333 235.391 58.656C236.756 59.9787 238.378 60.64 240.255 60.64C242.132 60.64 243.732 59.9787 245.055 58.656C246.42 57.3333 247.103 55.5413 247.103 53.28C247.103 51.0187 246.42 49.2267 245.055 47.904C243.732 46.5387 242.132 45.856 240.255 45.856C238.378 45.856 236.756 46.5387 235.391 47.904C234.068 49.2267 233.407 51.0187 233.407 53.28ZM280.298 53.28C280.298 49.952 280.959 47.1573 282.282 44.896C283.605 42.592 285.333 40.864 287.466 39.712C289.599 38.5173 291.861 37.92 294.25 37.92C298.602 37.92 301.973 39.712 304.362 43.296V18.08H314.026V68H304.362V63.264C301.973 66.848 298.602 68.64 294.25 68.64C291.861 68.64 289.599 68.064 287.466 66.912C285.333 65.7173 283.605 63.968 282.282 61.664C280.959 59.36 280.298 56.5653 280.298 53.28ZM290.474 53.28C290.474 55.584 291.157 57.4187 292.522 58.784C293.93 60.1493 295.594 60.832 297.514 60.832C298.623 60.832 299.69 60.5333 300.714 59.936C301.781 59.3387 302.655 58.4853 303.338 57.376C304.021 56.224 304.362 54.8587 304.362 53.28C304.362 51.6587 304.021 50.2933 303.338 49.184C302.655 48.0747 301.781 47.2213 300.714 46.624C299.69 46.0267 298.623 45.728 297.514 45.728C295.594 45.728 293.93 46.4107 292.522 47.776C291.157 49.1413 290.474 50.976 290.474 53.28ZM336.503 68.64C333.048 68.64 330.061 68.0213 327.544 66.784C325.069 65.504 323.149 63.712 321.784 61.408C320.418 59.104 319.736 56.3947 319.736 53.28C319.736 48.5013 321.208 44.7467 324.152 42.016C327.096 39.2853 331.149 37.92 336.312 37.92C341.389 37.92 345.293 39.2213 348.024 41.824C350.797 44.4267 352.184 48.096 352.184 52.832C352.184 53.3013 352.184 53.7493 352.184 54.176C352.184 54.6027 352.162 54.9867 352.12 55.328H329.656C329.912 57.3333 330.616 58.8907 331.768 60C332.92 61.1093 334.434 61.664 336.312 61.664C339.725 61.664 342.157 60.384 343.608 57.824L352.312 59.936C349.197 65.7387 343.928 68.64 336.503 68.64ZM336.12 44.384C332.621 44.384 330.509 46.24 329.784 49.952H341.816C341.645 48.2453 341.048 46.9013 340.024 45.92C339.042 44.896 337.741 44.384 336.12 44.384ZM378.299 23.2H389.115V39.52H408.379V23.2H419.195V68H408.379V49.248H389.115V68H378.299V23.2ZM425.923 53.28C425.923 50.1653 426.648 47.456 428.099 45.152C429.592 42.848 431.598 41.056 434.115 39.776C436.675 38.496 439.555 37.856 442.755 37.856C445.998 37.856 448.878 38.496 451.395 39.776C453.912 41.056 455.896 42.848 457.347 45.152C458.84 47.456 459.587 50.1653 459.587 53.28C459.587 56.352 458.84 59.04 457.347 61.344C455.896 63.648 453.912 65.44 451.395 66.72C448.878 68 445.998 68.64 442.755 68.64C439.555 68.64 436.675 68 434.115 66.72C431.598 65.44 429.592 63.648 428.099 61.344C426.648 59.04 425.923 56.352 425.923 53.28ZM435.907 53.28C435.907 55.5413 436.568 57.3333 437.891 58.656C439.256 59.9787 440.878 60.64 442.755 60.64C444.632 60.64 446.232 59.9787 447.555 58.656C448.92 57.3333 449.603 55.5413 449.603 53.28C449.603 51.0187 448.92 49.2267 447.555 47.904C446.232 46.5387 444.632 45.856 442.755 45.856C440.878 45.856 439.256 46.5387 437.891 47.904C436.568 49.2267 435.907 51.0187 435.907 53.28ZM483.387 48.608C482.875 48.096 482.32 47.6907 481.723 47.392C481.168 47.0933 480.464 46.944 479.611 46.944C478.203 46.944 477.051 47.4987 476.155 48.608C475.301 49.7173 474.875 51.3387 474.875 53.472V68H465.339V38.56H474.875V42.272C475.813 40.9067 476.923 39.84 478.203 39.072C479.525 38.2613 480.891 37.856 482.299 37.856C483.365 37.856 484.389 38.0907 485.371 38.56C486.352 38.9867 487.099 39.5627 487.611 40.288L483.387 48.608ZM494.851 47.584L491.587 41.12C493.294 40.3093 495.299 39.5413 497.603 38.816C499.95 38.0907 502.51 37.728 505.283 37.728C507.886 37.728 510.211 38.112 512.259 38.88C514.307 39.6053 515.928 40.672 517.123 42.08C518.318 43.488 518.915 45.216 518.915 47.264V68H509.635V63.968C508.739 65.504 507.395 66.6773 505.603 67.488C503.854 68.256 501.955 68.64 499.907 68.64C498.03 68.64 496.28 68.2987 494.659 67.616C493.08 66.8907 491.8 65.824 490.819 64.416C489.88 63.008 489.411 61.3013 489.411 59.296C489.411 56.48 490.392 54.2613 492.355 52.64C494.36 50.976 497.219 50.144 500.931 50.144C502.723 50.144 504.366 50.336 505.859 50.72C507.352 51.0613 508.611 51.488 509.635 52V49.44C509.635 46.5387 507.779 45.088 504.067 45.088C502.787 45.088 501.507 45.2373 500.227 45.536C498.947 45.8347 497.816 46.1973 496.835 46.624C495.896 47.008 495.235 47.328 494.851 47.584ZM499.203 58.784C499.203 59.936 499.587 60.832 500.355 61.472C501.166 62.0693 502.168 62.368 503.363 62.368C504.942 62.368 506.35 61.8987 507.587 60.96C508.824 59.9787 509.507 58.528 509.635 56.608C507.886 55.84 505.987 55.456 503.939 55.456C502.232 55.456 501.016 55.7547 500.291 56.352C499.566 56.9067 499.203 57.7173 499.203 58.784ZM527.751 57.312C530.012 59.1893 531.932 60.4693 533.511 61.152C535.132 61.792 536.455 62.112 537.479 62.112C539.399 62.112 540.359 61.344 540.359 59.808C540.359 58.8693 539.911 58.1227 539.015 57.568C538.119 56.9707 536.476 56.288 534.087 55.52C532.722 55.0507 531.399 54.4533 530.119 53.728C528.839 53.0027 527.794 52.0427 526.983 50.848C526.172 49.6533 525.767 48.1173 525.767 46.24C525.767 43.552 526.812 41.504 528.903 40.096C530.994 38.6453 533.618 37.92 536.775 37.92C539.292 37.92 541.596 38.3467 543.687 39.2C545.778 40.0107 547.676 41.0347 549.383 42.272L545.927 48.608C544.732 47.456 543.324 46.496 541.703 45.728C540.124 44.96 538.674 44.576 537.351 44.576C536.498 44.576 535.836 44.7467 535.367 45.088C534.94 45.4293 534.727 45.8773 534.727 46.432C534.727 47.4133 535.303 48.1387 536.455 48.608C537.65 49.0773 539.335 49.7387 541.511 50.592C543.047 51.1467 544.455 51.7867 545.735 52.512C547.015 53.2373 548.039 54.1547 548.807 55.264C549.618 56.3733 550.023 57.8453 550.023 59.68C550.023 62.7947 549.063 65.1627 547.143 66.784C545.223 68.4053 542.492 69.216 538.951 69.216C535.751 69.216 532.914 68.704 530.439 67.68C527.964 66.6133 525.724 65.2907 523.719 63.712L527.751 57.312Z" fill="url(#paint0_linear_15_171)"/>
<path d="M32.7778 25.9022C32.7778 27.7246 31.2979 29.2029 29.5 29.2029C27.7021 29.2029 26.2222 27.7246 26.2222 25.9022V19.3007C26.2222 17.4766 27.7021 16 29.5 16C31.2979 16 32.7778 17.4766 32.7778 19.3007V25.9022Z" fill="#FFCC4D"/>
<path d="M15.0451 75C14.678 75 14.3043 74.9148 13.9536 74.7394C12.7474 74.1265 12.2573 72.6416 12.8605 71.4174L27.5121 41.7093C27.9251 40.8702 28.7708 40.3408 29.6968 40.3408C30.6227 40.3408 31.4684 40.8702 31.8814 41.7093L46.5347 71.4174C47.1378 72.6416 46.6494 74.1265 45.4432 74.7394C44.237 75.3491 42.7702 74.8541 42.1671 73.6315L29.6984 48.3517L17.2314 73.6315C16.802 74.4985 15.9399 75 15.0451 75Z" fill="#FFAC33"/>
<path d="M29.6982 49.4202C29.2672 49.4202 28.8526 49.2465 28.5477 48.9367L5.75569 25.83C5.11981 25.1843 5.11981 24.1404 5.75569 23.4963C6.39158 22.8522 7.42244 22.8522 8.05669 23.4963L29.6982 45.4344L51.3365 23.4946C51.974 22.8505 53.0032 22.8505 53.6391 23.4946C54.275 24.1404 54.275 25.1843 53.6391 25.8284L30.8504 48.9367C30.5439 49.2449 30.1309 49.4202 29.6982 49.4202V49.4202Z" fill="#58595B"/>
<path d="M55.7469 47.7699C55.7469 62.3527 44.0862 74.174 29.6984 74.174C15.3138 74.174 3.65149 62.3527 3.65149 47.7699C3.65149 33.1838 15.3138 21.3625 29.6984 21.3625C44.0845 21.3608 55.7469 33.1838 55.7469 47.7699Z" fill="#DD2E44"/>
<path d="M49.2339 47.7699C49.2339 58.7078 40.4904 67.5742 29.6983 67.5742C18.9095 67.5742 10.1644 58.7078 10.1644 47.7699C10.1644 36.8303 18.9095 27.9639 29.6983 27.9639C40.4904 27.9623 49.2339 36.8303 49.2339 47.7699V47.7699Z" fill="#E6E7E8"/>
<path d="M49.2322 18.0601C46.5346 18.0601 44.0943 19.168 42.3259 20.9609L56.1401 34.9636C57.9069 33.1723 59 30.6976 59 27.9623C59 22.4949 54.6258 18.0601 49.2322 18.0601V18.0601ZM9.76778 18.0601C12.4637 18.0601 14.9057 19.168 16.6741 20.9609L2.85986 34.9636C1.09314 33.1723 0 30.6976 0 27.9623C0 22.4949 4.37256 18.0601 9.76778 18.0601V18.0601Z" fill="#FFCC4D"/>
<path d="M37.6944 48.7778H29.5C28.5953 48.7778 27.8611 48.0452 27.8611 47.1389V32.3889C27.8611 31.4842 28.5953 30.75 29.5 30.75C30.4047 30.75 31.1389 31.4842 31.1389 32.3889V45.5H37.6944C38.6008 45.5 39.3333 46.2342 39.3333 47.1389C39.3333 48.0452 38.6008 48.7778 37.6944 48.7778Z" fill="#414042"/>
<defs>
<linearGradient id="paint0_linear_15_171" x1="76" y1="46" x2="552" y2="46" gradientUnits="userSpaceOnUse">
<stop stop-color="#DD2E44"/>
<stop offset="1" stop-color="#ED5D2F"/>
</linearGradient>
</defs>
</svg>
