<svg width="218" height="36" viewBox="0 0 218 36" fill="none" xmlns="http://www.w3.org/2000/svg">
<path d="M53.88 21.4946C53.88 23.1586 53.288 24.3666 52.104 25.1186C50.936 25.8546 49.352 26.2226 47.352 26.2226H40.776V9.42256H46.968C48.12 9.42256 49.144 9.58256 50.04 9.90256C50.936 10.2066 51.64 10.6786 52.152 11.3186C52.664 11.9426 52.92 12.7346 52.92 13.6946C52.92 14.5106 52.704 15.2146 52.272 15.8066C51.84 16.3986 51.248 16.8626 50.496 17.1986C51.456 17.5346 52.256 18.0546 52.896 18.7586C53.552 19.4466 53.88 20.3586 53.88 21.4946ZM46.512 12.5666H44.832V16.0946H46.512C47.216 16.0946 47.76 15.9346 48.144 15.6146C48.528 15.2946 48.72 14.8546 48.72 14.2946C48.72 13.7346 48.528 13.3106 48.144 13.0226C47.76 12.7186 47.216 12.5666 46.512 12.5666ZM44.832 23.0786H46.896C47.68 23.0786 48.336 22.9186 48.864 22.5986C49.408 22.2786 49.68 21.7186 49.68 20.9186C49.68 20.1826 49.408 19.6706 48.864 19.3826C48.336 19.0786 47.68 18.9266 46.896 18.9266H44.832V23.0786ZM57.5535 18.5666L56.3295 16.1426C56.9695 15.8386 57.7215 15.5506 58.5855 15.2786C59.4655 15.0066 60.4255 14.8706 61.4655 14.8706C62.4415 14.8706 63.3135 15.0146 64.0815 15.3026C64.8495 15.5746 65.4575 15.9746 65.9055 16.5026C66.3535 17.0306 66.5775 17.6786 66.5775 18.4466V26.2226H63.0975V24.7106C62.7615 25.2866 62.2575 25.7266 61.5855 26.0306C60.9295 26.3186 60.2175 26.4626 59.4495 26.4626C58.7455 26.4626 58.0895 26.3346 57.4815 26.0786C56.8895 25.8066 56.4095 25.4066 56.0415 24.8786C55.6895 24.3506 55.5135 23.7106 55.5135 22.9586C55.5135 21.9026 55.8815 21.0706 56.6175 20.4626C57.3695 19.8386 58.4415 19.5266 59.8335 19.5266C60.5055 19.5266 61.1215 19.5986 61.6815 19.7426C62.2415 19.8706 62.7135 20.0306 63.0975 20.2226V19.2626C63.0975 18.1746 62.4015 17.6306 61.0095 17.6306C60.5295 17.6306 60.0495 17.6866 59.5695 17.7986C59.0895 17.9106 58.6655 18.0466 58.2975 18.2066C57.9455 18.3506 57.6975 18.4706 57.5535 18.5666ZM59.1855 22.7666C59.1855 23.1986 59.3295 23.5346 59.6175 23.7746C59.9215 23.9986 60.2975 24.1106 60.7455 24.1106C61.3375 24.1106 61.8655 23.9346 62.3295 23.5826C62.7935 23.2146 63.0495 22.6706 63.0975 21.9506C62.4415 21.6626 61.7295 21.5186 60.9615 21.5186C60.3215 21.5186 59.8655 21.6306 59.5935 21.8546C59.3215 22.0626 59.1855 22.3666 59.1855 22.7666ZM76.467 19.5026C76.467 18.8466 76.347 18.3506 76.107 18.0146C75.867 17.6626 75.451 17.4866 74.859 17.4866C74.283 17.4866 73.819 17.6626 73.467 18.0146C73.115 18.3506 72.939 18.8466 72.939 19.5026V26.2226H69.291V15.1826H72.939V16.8386C73.259 16.2306 73.691 15.7586 74.235 15.4226C74.795 15.0866 75.483 14.9186 76.299 14.9186C77.675 14.9186 78.675 15.2866 79.299 16.0226C79.939 16.7586 80.259 17.7906 80.259 19.1186V26.2226H76.467V19.5026ZM86.1437 20.7026C86.1437 21.5826 86.4317 22.2786 87.0077 22.7906C87.5837 23.3026 88.2797 23.5586 89.0957 23.5586C89.7517 23.5586 90.3757 23.4226 90.9677 23.1506C91.5597 22.8626 92.0157 22.4546 92.3357 21.9266V25.4546C91.9517 25.7586 91.4717 26.0066 90.8957 26.1986C90.3197 26.3746 89.6157 26.4626 88.7837 26.4626C87.5517 26.4626 86.4557 26.2226 85.4957 25.7426C84.5357 25.2626 83.7757 24.5906 83.2157 23.7266C82.6717 22.8626 82.3997 21.8546 82.3997 20.7026C82.3997 19.5346 82.6717 18.5266 83.2157 17.6786C83.7757 16.8146 84.5357 16.1426 85.4957 15.6626C86.4557 15.1826 87.5517 14.9426 88.7837 14.9426C89.6157 14.9426 90.3197 15.0386 90.8957 15.2306C91.4717 15.4066 91.9517 15.6306 92.3357 15.9026V19.4546C92.0157 18.9266 91.5437 18.5266 90.9197 18.2546C90.2957 17.9826 89.6877 17.8466 89.0957 17.8466C88.5517 17.8466 88.0557 17.9746 87.6077 18.2306C87.1597 18.4706 86.7997 18.8066 86.5277 19.2386C86.2717 19.6706 86.1437 20.1586 86.1437 20.7026ZM94.2836 20.7026C94.2836 19.5346 94.5556 18.5186 95.0996 17.6546C95.6596 16.7906 96.4116 16.1186 97.3556 15.6386C98.3156 15.1586 99.3956 14.9186 100.596 14.9186C101.812 14.9186 102.892 15.1586 103.836 15.6386C104.78 16.1186 105.524 16.7906 106.068 17.6546C106.628 18.5186 106.908 19.5346 106.908 20.7026C106.908 21.8546 106.628 22.8626 106.068 23.7266C105.524 24.5906 104.78 25.2626 103.836 25.7426C102.892 26.2226 101.812 26.4626 100.596 26.4626C99.3956 26.4626 98.3156 26.2226 97.3556 25.7426C96.4116 25.2626 95.6596 24.5906 95.0996 23.7266C94.5556 22.8626 94.2836 21.8546 94.2836 20.7026ZM98.0276 20.7026C98.0276 21.5506 98.2756 22.2226 98.7716 22.7186C99.2836 23.2146 99.8916 23.4626 100.596 23.4626C101.3 23.4626 101.9 23.2146 102.396 22.7186C102.908 22.2226 103.164 21.5506 103.164 20.7026C103.164 19.8546 102.908 19.1826 102.396 18.6866C101.9 18.1746 101.3 17.9186 100.596 17.9186C99.8916 17.9186 99.2836 18.1746 98.7716 18.6866C98.2756 19.1826 98.0276 19.8546 98.0276 20.7026ZM115.612 20.7026C115.612 19.4546 115.86 18.4066 116.356 17.5586C116.852 16.6946 117.5 16.0466 118.3 15.6146C119.1 15.1666 119.948 14.9426 120.844 14.9426C122.476 14.9426 123.74 15.6146 124.636 16.9586V7.50256H128.26V26.2226H124.636V24.4466C123.74 25.7906 122.476 26.4626 120.844 26.4626C119.948 26.4626 119.1 26.2466 118.3 25.8146C117.5 25.3666 116.852 24.7106 116.356 23.8466C115.86 22.9826 115.612 21.9346 115.612 20.7026ZM119.428 20.7026C119.428 21.5666 119.684 22.2546 120.196 22.7666C120.724 23.2786 121.348 23.5346 122.068 23.5346C122.484 23.5346 122.884 23.4226 123.268 23.1986C123.668 22.9746 123.996 22.6546 124.252 22.2386C124.508 21.8066 124.636 21.2946 124.636 20.7026C124.636 20.0946 124.508 19.5826 124.252 19.1666C123.996 18.7506 123.668 18.4306 123.268 18.2066C122.884 17.9826 122.484 17.8706 122.068 17.8706C121.348 17.8706 120.724 18.1266 120.196 18.6386C119.684 19.1506 119.428 19.8386 119.428 20.7026ZM136.689 26.4626C135.393 26.4626 134.273 26.2306 133.329 25.7666C132.401 25.2866 131.681 24.6146 131.169 23.7506C130.657 22.8866 130.401 21.8706 130.401 20.7026C130.401 18.9106 130.953 17.5026 132.057 16.4786C133.161 15.4546 134.681 14.9426 136.617 14.9426C138.521 14.9426 139.985 15.4306 141.009 16.4066C142.049 17.3826 142.569 18.7586 142.569 20.5346C142.569 20.7106 142.569 20.8786 142.569 21.0386C142.569 21.1986 142.561 21.3426 142.545 21.4706H134.121C134.217 22.2226 134.481 22.8066 134.913 23.2226C135.345 23.6386 135.913 23.8466 136.617 23.8466C137.897 23.8466 138.809 23.3666 139.353 22.4066L142.617 23.1986C141.449 25.3746 139.473 26.4626 136.689 26.4626ZM136.545 17.3666C135.233 17.3666 134.441 18.0626 134.169 19.4546H138.681C138.617 18.8146 138.393 18.3106 138.009 17.9426C137.641 17.5586 137.153 17.3666 136.545 17.3666ZM152.362 9.42256H156.418V15.5426H163.642V9.42256H167.698V26.2226H163.642V19.1906H156.418V26.2226H152.362V9.42256ZM170.221 20.7026C170.221 19.5346 170.493 18.5186 171.037 17.6546C171.597 16.7906 172.349 16.1186 173.293 15.6386C174.253 15.1586 175.333 14.9186 176.533 14.9186C177.749 14.9186 178.829 15.1586 179.773 15.6386C180.717 16.1186 181.461 16.7906 182.005 17.6546C182.565 18.5186 182.845 19.5346 182.845 20.7026C182.845 21.8546 182.565 22.8626 182.005 23.7266C181.461 24.5906 180.717 25.2626 179.773 25.7426C178.829 26.2226 177.749 26.4626 176.533 26.4626C175.333 26.4626 174.253 26.2226 173.293 25.7426C172.349 25.2626 171.597 24.5906 171.037 23.7266C170.493 22.8626 170.221 21.8546 170.221 20.7026ZM173.965 20.7026C173.965 21.5506 174.213 22.2226 174.709 22.7186C175.221 23.2146 175.829 23.4626 176.533 23.4626C177.237 23.4626 177.837 23.2146 178.333 22.7186C178.845 22.2226 179.101 21.5506 179.101 20.7026C179.101 19.8546 178.845 19.1826 178.333 18.6866C177.837 18.1746 177.237 17.9186 176.533 17.9186C175.829 17.9186 175.221 18.1746 174.709 18.6866C174.213 19.1826 173.965 19.8546 173.965 20.7026ZM191.77 18.9506C191.578 18.7586 191.37 18.6066 191.146 18.4946C190.938 18.3826 190.674 18.3266 190.354 18.3266C189.826 18.3266 189.394 18.5346 189.058 18.9506C188.738 19.3666 188.578 19.9746 188.578 20.7746V26.2226H185.002V15.1826H188.578V16.5746C188.93 16.0626 189.346 15.6626 189.826 15.3746C190.322 15.0706 190.834 14.9186 191.362 14.9186C191.762 14.9186 192.146 15.0066 192.514 15.1826C192.882 15.3426 193.162 15.5586 193.354 15.8306L191.77 18.9506ZM196.069 18.5666L194.845 16.1426C195.485 15.8386 196.237 15.5506 197.101 15.2786C197.981 15.0066 198.941 14.8706 199.981 14.8706C200.957 14.8706 201.829 15.0146 202.597 15.3026C203.365 15.5746 203.973 15.9746 204.421 16.5026C204.869 17.0306 205.093 17.6786 205.093 18.4466V26.2226H201.613V24.7106C201.277 25.2866 200.773 25.7266 200.101 26.0306C199.445 26.3186 198.733 26.4626 197.965 26.4626C197.261 26.4626 196.605 26.3346 195.997 26.0786C195.405 25.8066 194.925 25.4066 194.557 24.8786C194.205 24.3506 194.029 23.7106 194.029 22.9586C194.029 21.9026 194.397 21.0706 195.133 20.4626C195.885 19.8386 196.957 19.5266 198.349 19.5266C199.021 19.5266 199.637 19.5986 200.197 19.7426C200.757 19.8706 201.229 20.0306 201.613 20.2226V19.2626C201.613 18.1746 200.917 17.6306 199.525 17.6306C199.045 17.6306 198.565 17.6866 198.085 17.7986C197.605 17.9106 197.181 18.0466 196.813 18.2066C196.461 18.3506 196.213 18.4706 196.069 18.5666ZM197.701 22.7666C197.701 23.1986 197.845 23.5346 198.133 23.7746C198.437 23.9986 198.813 24.1106 199.261 24.1106C199.853 24.1106 200.381 23.9346 200.845 23.5826C201.309 23.2146 201.565 22.6706 201.613 21.9506C200.957 21.6626 200.245 21.5186 199.477 21.5186C198.837 21.5186 198.381 21.6306 198.109 21.8546C197.837 22.0626 197.701 22.3666 197.701 22.7666ZM208.407 22.2146C209.255 22.9186 209.975 23.3986 210.567 23.6546C211.175 23.8946 211.671 24.0146 212.055 24.0146C212.775 24.0146 213.135 23.7266 213.135 23.1506C213.135 22.7986 212.967 22.5186 212.631 22.3106C212.295 22.0866 211.679 21.8306 210.783 21.5426C210.271 21.3666 209.775 21.1426 209.295 20.8706C208.815 20.5986 208.423 20.2386 208.119 19.7906C207.815 19.3426 207.663 18.7666 207.663 18.0626C207.663 17.0546 208.055 16.2866 208.839 15.7586C209.623 15.2146 210.607 14.9426 211.791 14.9426C212.735 14.9426 213.599 15.1026 214.383 15.4226C215.167 15.7266 215.879 16.1106 216.519 16.5746L215.223 18.9506C214.775 18.5186 214.247 18.1586 213.639 17.8706C213.047 17.5826 212.503 17.4386 212.007 17.4386C211.687 17.4386 211.439 17.5026 211.263 17.6306C211.103 17.7586 211.023 17.9266 211.023 18.1346C211.023 18.5026 211.239 18.7746 211.671 18.9506C212.119 19.1266 212.751 19.3746 213.567 19.6946C214.143 19.9026 214.671 20.1426 215.151 20.4146C215.631 20.6866 216.015 21.0306 216.303 21.4466C216.607 21.8626 216.759 22.4146 216.759 23.1026C216.759 24.2706 216.399 25.1586 215.679 25.7666C214.959 26.3746 213.935 26.6786 212.607 26.6786C211.407 26.6786 210.343 26.4866 209.415 26.1026C208.487 25.7026 207.647 25.2066 206.895 24.6146L208.407 22.2146Z" fill="url(#paint0_linear_22_10)"/>
<path d="M17.6279 5.32539C17.6279 6.3055 16.832 7.10052 15.8651 7.10052C14.8982 7.10052 14.1023 6.3055 14.1023 5.32539V1.77513C14.1023 0.794137 14.8982 0 15.8651 0C16.832 0 17.6279 0.794137 17.6279 1.77513V5.32539Z" fill="#FFCC4D"/>
<path d="M8.0913 31.7302C7.89386 31.7302 7.6929 31.6844 7.50429 31.5901C6.85558 31.2604 6.59204 30.4619 6.9164 29.8035L14.7961 13.8264C15.0182 13.3752 15.473 13.0905 15.971 13.0905C16.469 13.0905 16.9238 13.3752 17.1459 13.8264L25.0264 29.8035C25.3508 30.4619 25.0881 31.2604 24.4394 31.5901C23.7907 31.918 23.0019 31.6518 22.6775 30.9943L15.9718 17.3987L9.26708 30.9943C9.03615 31.4605 8.57254 31.7302 8.0913 31.7302Z" fill="#FFAC33"/>
<path d="M15.9717 17.9734C15.7399 17.9734 15.5169 17.88 15.3529 17.7134L3.09535 5.28662C2.75337 4.93935 2.75337 4.3779 3.09535 4.03152C3.43733 3.68513 3.99173 3.68513 4.33283 4.03152L15.9717 15.8299L27.6087 4.03063C27.9516 3.68425 28.5051 3.68425 28.8471 4.03063C29.1891 4.3779 29.1891 4.93935 28.8471 5.28574L16.5913 17.7134C16.4265 17.8791 16.2043 17.9734 15.9717 17.9734V17.9734Z" fill="#58595B"/>
<path d="M29.9808 17.0859C29.9808 24.9285 23.7097 31.286 15.9719 31.286C8.23588 31.286 1.96387 24.9285 1.96387 17.0859C1.96387 9.24145 8.23588 2.88394 15.9719 2.88394C23.7088 2.88306 29.9808 9.24145 29.9808 17.0859Z" fill="#DD2E44"/>
<path d="M26.4779 17.0859C26.4779 22.9683 21.7756 27.7366 15.9717 27.7366C10.1694 27.7366 5.46631 22.9683 5.46631 17.0859C5.46631 11.2026 10.1694 6.4342 15.9717 6.4342C21.7756 6.43332 26.4779 11.2026 26.4779 17.0859V17.0859Z" fill="#E6E7E8"/>
<path d="M26.4771 1.10791C25.0263 1.10791 23.7139 1.70373 22.7629 2.66798L30.1922 10.1986C31.1423 9.23526 31.7302 7.90435 31.7302 6.4333C31.7302 3.49297 29.3778 1.10791 26.4771 1.10791V1.10791ZM5.25312 1.10791C6.70301 1.10791 8.01629 1.70373 8.96731 2.66798L1.53803 10.1986C0.587891 9.23526 0 7.90435 0 6.4333C0 3.49297 2.35156 1.10791 5.25312 1.10791V1.10791Z" fill="#FFCC4D"/>
<path d="M20.272 17.6279H15.865C15.3785 17.6279 14.9836 17.2339 14.9836 16.7465V8.81395C14.9836 8.32742 15.3785 7.93256 15.865 7.93256C16.3516 7.93256 16.7464 8.32742 16.7464 8.81395V15.8651H20.272C20.7594 15.8651 21.1534 16.26 21.1534 16.7465C21.1534 17.2339 20.7594 17.6279 20.272 17.6279Z" fill="#414042"/>
<defs>
<linearGradient id="paint0_linear_22_10" x1="39" y1="17.7226" x2="218" y2="17.7226" gradientUnits="userSpaceOnUse">
<stop stop-color="#DD2E44"/>
<stop offset="1" stop-color="#ED5D2F"/>
</linearGradient>
</defs>
</svg>
