<svg width="322" height="100" viewBox="0 0 322 100" fill="none" xmlns="http://www.w3.org/2000/svg">
<path d="M32.7777 29.9022C32.7777 31.7246 31.2978 33.2029 29.4999 33.2029C27.7021 33.2029 26.2222 31.7246 26.2222 29.9022V23.3007C26.2222 21.4766 27.7021 20 29.4999 20C31.2978 20 32.7777 21.4766 32.7777 23.3007V29.9022Z" fill="#FFCC4D"/>
<path d="M15.0452 79C14.678 79 14.3044 78.9148 13.9537 78.7394C12.7474 78.1265 12.2574 76.6416 12.8605 75.4174L27.5122 45.7093C27.9252 44.8702 28.7709 44.3408 29.6968 44.3408C30.6228 44.3408 31.4685 44.8702 31.8815 45.7093L46.5348 75.4174C47.1379 76.6416 46.6495 78.1265 45.4433 78.7394C44.237 79.3491 42.7702 78.8541 42.1671 77.6315L29.6985 52.3517L17.2314 77.6315C16.802 78.4985 15.94 79 15.0452 79Z" fill="#FFAC33"/>
<path d="M29.6983 53.4202C29.2672 53.4202 28.8526 53.2465 28.5478 52.9367L5.75573 29.83C5.11984 29.1843 5.11984 28.1404 5.75573 27.4963C6.39161 26.8522 7.42247 26.8522 8.05672 27.4963L29.6983 49.4344L51.3365 27.4946C51.974 26.8505 53.0033 26.8505 53.6391 27.4946C54.275 28.1404 54.275 29.1843 53.6391 29.8284L30.8504 52.9367C30.5439 53.2449 30.1309 53.4202 29.6983 53.4202V53.4202Z" fill="#58595B"/>
<path d="M55.7469 51.7699C55.7469 66.3527 44.0862 78.174 29.6984 78.174C15.3138 78.174 3.65149 66.3527 3.65149 51.7699C3.65149 37.1838 15.3138 25.3625 29.6984 25.3625C44.0845 25.3608 55.7469 37.1838 55.7469 51.7699Z" fill="#2E89DD"/>
<path d="M49.2339 51.7699C49.2339 62.7078 40.4904 71.5742 29.6983 71.5742C18.9095 71.5742 10.1644 62.7078 10.1644 51.7699C10.1644 40.8303 18.9095 31.9639 29.6983 31.9639C40.4904 31.9623 49.2339 40.8303 49.2339 51.7699V51.7699Z" fill="#E6E7E8"/>
<path d="M49.2322 22.0601C46.5346 22.0601 44.0943 23.168 42.3259 24.9609L56.1401 38.9636C57.9069 37.1723 59 34.6976 59 31.9623C59 26.4949 54.6258 22.0601 49.2322 22.0601V22.0601ZM9.76778 22.0601C12.4637 22.0601 14.9057 23.168 16.6741 24.9609L2.85986 38.9636C1.09314 37.1723 0 34.6976 0 31.9623C0 26.4949 4.37256 22.0601 9.76778 22.0601V22.0601Z" fill="#FFCC4D"/>
<path d="M37.6944 52.7778H29.5C28.5953 52.7778 27.8611 52.0452 27.8611 51.1389V36.3889C27.8611 35.4842 28.5953 34.75 29.5 34.75C30.4046 34.75 31.1389 35.4842 31.1389 36.3889V49.5H37.6944C38.6007 49.5 39.3333 50.2342 39.3333 51.1389C39.3333 52.0452 38.6007 52.7778 37.6944 52.7778Z" fill="#414042"/>
<path d="M115.68 55.392C115.68 59.8293 114.101 63.0507 110.944 65.056C107.829 67.0187 103.605 68 98.272 68H80.736V23.2H97.248C100.32 23.2 103.051 23.6267 105.44 24.48C107.829 25.2907 109.707 26.5493 111.072 28.256C112.437 29.92 113.12 32.032 113.12 34.592C113.12 36.768 112.544 38.6453 111.392 40.224C110.24 41.8027 108.661 43.04 106.656 43.936C109.216 44.832 111.349 46.2187 113.056 48.096C114.805 49.9307 115.68 52.3627 115.68 55.392ZM96.032 31.584H91.552V40.992H96.032C97.9093 40.992 99.36 40.5653 100.384 39.712C101.408 38.8587 101.92 37.6853 101.92 36.192C101.92 34.6987 101.408 33.568 100.384 32.8C99.36 31.9893 97.9093 31.584 96.032 31.584ZM91.552 59.616H97.056C99.1467 59.616 100.896 59.1893 102.304 58.336C103.755 57.4827 104.48 55.9893 104.48 53.856C104.48 51.8933 103.755 50.528 102.304 49.76C100.896 48.9493 99.1467 48.544 97.056 48.544H91.552V59.616ZM132.452 56.48C132.452 58.1867 132.751 59.5093 133.348 60.448C133.988 61.3867 135.097 61.856 136.676 61.856C138.212 61.856 139.449 61.3867 140.388 60.448C141.327 59.5093 141.796 58.1867 141.796 56.48V38.56H151.524V68H141.796V63.584C140.943 65.1627 139.769 66.4213 138.276 67.36C136.825 68.256 135.012 68.704 132.836 68.704C129.209 68.704 126.543 67.7227 124.836 65.76C123.129 63.7547 122.276 61.0027 122.276 57.504V38.56H132.452V56.48ZM158.513 27.552C158.513 26.016 159.046 24.7573 160.113 23.776C161.222 22.7947 162.566 22.304 164.145 22.304C165.723 22.304 167.046 22.7947 168.113 23.776C169.222 24.7573 169.777 26.016 169.777 27.552C169.777 29.088 169.222 30.3467 168.113 31.328C167.046 32.2667 165.723 32.736 164.145 32.736C162.566 32.736 161.222 32.2667 160.113 31.328C159.046 30.3467 158.513 29.088 158.513 27.552ZM159.409 38.56H168.817V68H159.409V38.56ZM176.776 18.08H186.504V68H176.776V18.08ZM192.298 53.28C192.298 49.952 192.959 47.1573 194.282 44.896C195.605 42.592 197.333 40.864 199.466 39.712C201.599 38.5173 203.861 37.92 206.25 37.92C210.602 37.92 213.973 39.712 216.362 43.296V18.08H226.026V68H216.362V63.264C213.973 66.848 210.602 68.64 206.25 68.64C203.861 68.64 201.599 68.064 199.466 66.912C197.333 65.7173 195.605 63.968 194.282 61.664C192.959 59.36 192.298 56.5653 192.298 53.28ZM202.474 53.28C202.474 55.584 203.157 57.4187 204.522 58.784C205.93 60.1493 207.594 60.832 209.514 60.832C210.623 60.832 211.69 60.5333 212.714 59.936C213.781 59.3387 214.655 58.4853 215.338 57.376C216.021 56.224 216.362 54.8587 216.362 53.28C216.362 51.6587 216.021 50.2933 215.338 49.184C214.655 48.0747 213.781 47.2213 212.714 46.624C211.69 46.0267 210.623 45.728 209.514 45.728C207.594 45.728 205.93 46.4107 204.522 47.776C203.157 49.1413 202.474 50.976 202.474 53.28ZM248.503 68.64C245.048 68.64 242.061 68.0213 239.544 66.784C237.069 65.504 235.149 63.712 233.784 61.408C232.418 59.104 231.736 56.3947 231.736 53.28C231.736 48.5013 233.208 44.7467 236.152 42.016C239.096 39.2853 243.149 37.92 248.312 37.92C253.389 37.92 257.293 39.2213 260.024 41.824C262.797 44.4267 264.184 48.096 264.184 52.832C264.184 53.3013 264.184 53.7493 264.184 54.176C264.184 54.6027 264.162 54.9867 264.12 55.328H241.656C241.912 57.3333 242.616 58.8907 243.768 60C244.92 61.1093 246.434 61.664 248.312 61.664C251.725 61.664 254.157 60.384 255.608 57.824L264.312 59.936C261.197 65.7387 255.928 68.64 248.503 68.64ZM248.12 44.384C244.621 44.384 242.509 46.24 241.784 49.952H253.816C253.645 48.2453 253.048 46.9013 252.024 45.92C251.042 44.896 249.741 44.384 248.12 44.384ZM288.199 48.608C287.687 48.096 287.132 47.6907 286.535 47.392C285.98 47.0933 285.276 46.944 284.423 46.944C283.015 46.944 281.863 47.4987 280.967 48.608C280.114 49.7173 279.687 51.3387 279.687 53.472V68H270.151V38.56H279.687V42.272C280.626 40.9067 281.735 39.84 283.015 39.072C284.338 38.2613 285.703 37.856 287.111 37.856C288.178 37.856 289.202 38.0907 290.183 38.56C291.164 38.9867 291.911 39.5627 292.423 40.288L288.199 48.608ZM298.064 57.312C300.325 59.1893 302.245 60.4693 303.824 61.152C305.445 61.792 306.768 62.112 307.792 62.112C309.712 62.112 310.672 61.344 310.672 59.808C310.672 58.8693 310.224 58.1227 309.328 57.568C308.432 56.9707 306.789 56.288 304.4 55.52C303.034 55.0507 301.712 54.4533 300.432 53.728C299.152 53.0027 298.106 52.0427 297.296 50.848C296.485 49.6533 296.08 48.1173 296.08 46.24C296.08 43.552 297.125 41.504 299.216 40.096C301.306 38.6453 303.93 37.92 307.088 37.92C309.605 37.92 311.909 38.3467 314 39.2C316.09 40.0107 317.989 41.0347 319.696 42.272L316.24 48.608C315.045 47.456 313.637 46.496 312.016 45.728C310.437 44.96 308.986 44.576 307.664 44.576C306.81 44.576 306.149 44.7467 305.68 45.088C305.253 45.4293 305.04 45.8773 305.04 46.432C305.04 47.4133 305.616 48.1387 306.768 48.608C307.962 49.0773 309.648 49.7387 311.824 50.592C313.36 51.1467 314.768 51.7867 316.048 52.512C317.328 53.2373 318.352 54.1547 319.12 55.264C319.93 56.3733 320.336 57.8453 320.336 59.68C320.336 62.7947 319.376 65.1627 317.456 66.784C315.536 68.4053 312.805 69.216 309.264 69.216C306.064 69.216 303.226 68.704 300.752 67.68C298.277 66.6133 296.037 65.2907 294.032 63.712L298.064 57.312Z" fill="url(#paint0_linear_56_6)"/>
<path d="M87.838 88.926C88.498 89.214 89.008 89.616 89.368 90.132C89.728 90.636 89.908 91.242 89.908 91.95C89.908 93.198 89.488 94.188 88.648 94.92C87.808 95.64 86.656 96 85.192 96H80.494L80.62 93.3V85.11L80.494 82.5H85.21C86.026 82.5 86.734 82.662 87.334 82.986C87.934 83.298 88.396 83.742 88.72 84.318C89.056 84.894 89.224 85.56 89.224 86.316C89.224 86.892 89.104 87.402 88.864 87.846C88.636 88.29 88.294 88.65 87.838 88.926ZM82.474 84.264V88.17H84.634C85.57 88.17 86.242 88.026 86.65 87.738C87.07 87.438 87.28 86.964 87.28 86.316C87.28 85.632 87.07 85.122 86.65 84.786C86.23 84.438 85.57 84.264 84.67 84.264H82.474ZM85.192 94.236C86.08 94.236 86.764 94.038 87.244 93.642C87.724 93.234 87.964 92.67 87.964 91.95C87.964 91.254 87.742 90.744 87.298 90.42C86.866 90.096 86.176 89.934 85.228 89.934H82.474V94.236H85.192ZM91.7493 92.994C91.7493 92.286 91.9053 91.656 92.2173 91.104C92.5413 90.54 92.9793 90.102 93.5313 89.79C94.0953 89.478 94.7193 89.322 95.4033 89.322C95.9433 89.322 96.4773 89.376 97.0053 89.484C97.5453 89.592 97.9713 89.736 98.2833 89.916V88.854C98.2833 88.122 98.0853 87.582 97.6893 87.234C97.3053 86.886 96.7053 86.712 95.8893 86.712C95.1573 86.712 94.4973 86.85 93.9093 87.126C93.3333 87.39 92.8833 87.768 92.5593 88.26L92.3613 88.224L92.6133 86.19C93.0213 85.794 93.5313 85.488 94.1433 85.272C94.7673 85.056 95.4393 84.948 96.1593 84.948C97.3953 84.948 98.3553 85.254 99.0393 85.866C99.7353 86.466 100.083 87.33 100.083 88.458V93.318L100.209 96H98.3373L98.2833 94.92C98.0673 95.28 97.6593 95.598 97.0593 95.874C96.4593 96.15 95.8473 96.288 95.2233 96.288C94.1313 96.288 93.2793 96 92.6673 95.424C92.0553 94.836 91.7493 94.026 91.7493 92.994ZM93.6213 92.832C93.6213 93.48 93.7593 93.942 94.0353 94.218C94.3233 94.494 94.8153 94.632 95.5113 94.632C95.9793 94.632 96.4953 94.53 97.0593 94.326C97.6353 94.122 98.0433 93.888 98.2833 93.624V91.59C97.9953 91.41 97.5933 91.26 97.0773 91.14C96.5613 91.02 96.0393 90.96 95.5113 90.96C94.8513 90.96 94.3713 91.116 94.0713 91.428C93.7713 91.74 93.6213 92.208 93.6213 92.832ZM109.06 93.3V88.548C109.06 87.324 108.514 86.712 107.422 86.712C106.966 86.712 106.486 86.844 105.982 87.108C105.478 87.36 105.094 87.696 104.83 88.116V93.3L104.956 96H102.904L103.03 93.3V87.81L102.904 85.2H104.47L104.83 86.64C105.154 86.148 105.61 85.764 106.198 85.488C106.798 85.212 107.44 85.074 108.124 85.074C108.976 85.074 109.642 85.344 110.122 85.884C110.614 86.412 110.86 87.162 110.86 88.134V93.3L110.986 96H108.934L109.06 93.3ZM117.675 96.288C114.795 96.288 113.355 94.422 113.355 90.69C113.355 88.854 113.721 87.444 114.453 86.46C115.197 85.476 116.289 84.984 117.729 84.984C118.485 84.984 119.085 85.05 119.529 85.182C119.985 85.302 120.423 85.518 120.843 85.83L120.555 87.432L120.267 87.558C119.979 87.27 119.655 87.066 119.295 86.946C118.935 86.814 118.485 86.748 117.945 86.748C116.985 86.748 116.289 87.06 115.857 87.684C115.437 88.308 115.227 89.31 115.227 90.69C115.227 91.626 115.317 92.37 115.497 92.922C115.677 93.474 115.971 93.876 116.379 94.128C116.787 94.38 117.339 94.506 118.035 94.506C118.647 94.506 119.139 94.44 119.511 94.308C119.883 94.176 120.279 93.936 120.699 93.588L121.005 93.732L120.609 95.334C120.141 95.694 119.697 95.94 119.277 96.072C118.857 96.216 118.323 96.288 117.675 96.288ZM127.418 96.288C125.87 96.288 124.73 95.82 123.998 94.884C123.278 93.936 122.918 92.502 122.918 90.582C122.918 88.662 123.278 87.24 123.998 86.316C124.73 85.38 125.87 84.912 127.418 84.912C128.966 84.912 130.1 85.38 130.82 86.316C131.552 87.24 131.918 88.662 131.918 90.582C131.918 92.502 131.552 93.936 130.82 94.884C130.1 95.82 128.966 96.288 127.418 96.288ZM127.418 94.524C128.102 94.524 128.63 94.404 129.002 94.164C129.386 93.924 129.656 93.528 129.812 92.976C129.968 92.412 130.046 91.62 130.046 90.6C130.046 89.58 129.968 88.794 129.812 88.242C129.656 87.678 129.386 87.276 129.002 87.036C128.63 86.796 128.102 86.676 127.418 86.676C126.734 86.676 126.2 86.796 125.816 87.036C125.444 87.276 125.18 87.678 125.024 88.242C124.868 88.794 124.79 89.58 124.79 90.6C124.79 91.62 124.868 92.412 125.024 92.976C125.18 93.528 125.444 93.924 125.816 94.164C126.2 94.404 126.734 94.524 127.418 94.524ZM146.457 93.318L146.565 96H144.711L144.639 94.866C144.387 95.262 144.039 95.574 143.595 95.802C143.151 96.03 142.689 96.144 142.209 96.144C140.901 96.144 139.893 95.676 139.185 94.74C138.489 93.792 138.141 92.406 138.141 90.582C138.141 88.65 138.465 87.234 139.113 86.334C139.773 85.434 140.775 84.984 142.119 84.984C143.151 84.984 143.997 85.218 144.657 85.686V84.21L144.531 81.6H146.565L146.457 84.21V93.318ZM142.389 94.416C143.409 94.416 144.165 94.158 144.657 93.642V87.108C144.165 86.856 143.469 86.73 142.569 86.73C141.909 86.73 141.393 86.844 141.021 87.072C140.661 87.3 140.403 87.69 140.247 88.242C140.091 88.794 140.013 89.574 140.013 90.582C140.013 91.962 140.199 92.946 140.571 93.534C140.943 94.122 141.549 94.416 142.389 94.416ZM153.538 96.216C151.942 96.216 150.796 95.748 150.1 94.812C149.416 93.864 149.074 92.454 149.074 90.582C149.074 88.758 149.44 87.36 150.172 86.388C150.904 85.404 152.026 84.912 153.538 84.912C154.966 84.912 156.022 85.29 156.706 86.046C157.402 86.79 157.81 88.002 157.93 89.682L157.48 91.41H150.982C151.006 92.154 151.108 92.748 151.288 93.192C151.48 93.624 151.78 93.948 152.188 94.164C152.596 94.38 153.16 94.488 153.88 94.488C154.612 94.488 155.266 94.41 155.842 94.254C156.43 94.086 156.922 93.858 157.318 93.57L157.624 93.714L157.228 95.298C156.784 95.622 156.28 95.856 155.716 96C155.152 96.144 154.426 96.216 153.538 96.216ZM156.058 89.898C156.058 88.746 155.866 87.924 155.482 87.432C155.11 86.928 154.486 86.676 153.61 86.676C152.974 86.676 152.464 86.784 152.08 87C151.708 87.204 151.432 87.54 151.252 88.008C151.084 88.476 150.988 89.106 150.964 89.898H156.058ZM170.46 93.3V88.548C170.46 87.324 169.914 86.712 168.822 86.712C168.366 86.712 167.886 86.844 167.382 87.108C166.878 87.36 166.494 87.696 166.23 88.116V93.3L166.356 96H164.304L164.43 93.3V84.21L164.304 81.6H166.356L166.23 84.21V86.64C166.554 86.148 167.01 85.764 167.598 85.488C168.198 85.212 168.84 85.074 169.524 85.074C170.376 85.074 171.042 85.344 171.522 85.884C172.014 86.412 172.26 87.162 172.26 88.134V93.3L172.386 96H170.334L170.46 93.3ZM179.256 96.288C177.708 96.288 176.568 95.82 175.836 94.884C175.116 93.936 174.756 92.502 174.756 90.582C174.756 88.662 175.116 87.24 175.836 86.316C176.568 85.38 177.708 84.912 179.256 84.912C180.804 84.912 181.938 85.38 182.658 86.316C183.39 87.24 183.756 88.662 183.756 90.582C183.756 92.502 183.39 93.936 182.658 94.884C181.938 95.82 180.804 96.288 179.256 96.288ZM179.256 94.524C179.94 94.524 180.468 94.404 180.84 94.164C181.224 93.924 181.494 93.528 181.65 92.976C181.806 92.412 181.884 91.62 181.884 90.6C181.884 89.58 181.806 88.794 181.65 88.242C181.494 87.678 181.224 87.276 180.84 87.036C180.468 86.796 179.94 86.676 179.256 86.676C178.572 86.676 178.038 86.796 177.654 87.036C177.282 87.276 177.018 87.678 176.862 88.242C176.706 88.794 176.628 89.58 176.628 90.6C176.628 91.62 176.706 92.412 176.862 92.976C177.018 93.528 177.282 93.924 177.654 94.164C178.038 94.404 178.572 94.524 179.256 94.524ZM190.652 85.074C191.516 85.074 192.116 85.158 192.452 85.326L192.164 86.91L191.93 87.072C191.786 86.964 191.552 86.874 191.228 86.802C190.904 86.73 190.574 86.694 190.238 86.694C189.35 86.694 188.654 87.06 188.15 87.792V93.3L188.276 96H186.224L186.35 93.3V87.81L186.224 85.2H187.79L188.114 86.424C188.414 85.992 188.786 85.662 189.23 85.434C189.674 85.194 190.148 85.074 190.652 85.074ZM193.65 92.994C193.65 92.286 193.806 91.656 194.118 91.104C194.442 90.54 194.88 90.102 195.432 89.79C195.996 89.478 196.62 89.322 197.304 89.322C197.844 89.322 198.378 89.376 198.906 89.484C199.446 89.592 199.872 89.736 200.184 89.916V88.854C200.184 88.122 199.986 87.582 199.59 87.234C199.206 86.886 198.606 86.712 197.79 86.712C197.058 86.712 196.398 86.85 195.81 87.126C195.234 87.39 194.784 87.768 194.46 88.26L194.262 88.224L194.514 86.19C194.922 85.794 195.432 85.488 196.044 85.272C196.668 85.056 197.34 84.948 198.06 84.948C199.296 84.948 200.256 85.254 200.94 85.866C201.636 86.466 201.984 87.33 201.984 88.458V93.318L202.11 96H200.238L200.184 94.92C199.968 95.28 199.56 95.598 198.96 95.874C198.36 96.15 197.748 96.288 197.124 96.288C196.032 96.288 195.18 96 194.568 95.424C193.956 94.836 193.65 94.026 193.65 92.994ZM195.522 92.832C195.522 93.48 195.66 93.942 195.936 94.218C196.224 94.494 196.716 94.632 197.412 94.632C197.88 94.632 198.396 94.53 198.96 94.326C199.536 94.122 199.944 93.888 200.184 93.624V91.59C199.896 91.41 199.494 91.26 198.978 91.14C198.462 91.02 197.94 90.96 197.412 90.96C196.752 90.96 196.272 91.116 195.972 91.428C195.672 91.74 195.522 92.208 195.522 92.832ZM208.368 96.18C207.588 96.18 206.916 96.072 206.352 95.856C205.8 95.64 205.26 95.274 204.732 94.758L204.48 93.066L204.732 92.994C205.896 93.93 207.078 94.398 208.278 94.398C209.634 94.398 210.312 94.02 210.312 93.264C210.312 92.988 210.24 92.76 210.096 92.58C209.952 92.388 209.694 92.202 209.322 92.022C208.95 91.83 208.392 91.602 207.648 91.338C206.868 91.062 206.262 90.786 205.83 90.51C205.41 90.234 205.11 89.916 204.93 89.556C204.762 89.184 204.678 88.722 204.678 88.17C204.678 87.15 204.996 86.364 205.632 85.812C206.28 85.248 207.204 84.966 208.404 84.966C209.136 84.966 209.778 85.056 210.33 85.236C210.894 85.404 211.404 85.674 211.86 86.046L211.554 87.738L211.284 87.81C211.032 87.486 210.636 87.228 210.096 87.036C209.568 86.832 209.028 86.73 208.476 86.73C207.84 86.73 207.354 86.838 207.018 87.054C206.694 87.27 206.532 87.576 206.532 87.972C206.532 88.272 206.604 88.518 206.748 88.71C206.892 88.902 207.144 89.088 207.504 89.268C207.864 89.436 208.404 89.64 209.124 89.88C210.24 90.24 211.026 90.66 211.482 91.14C211.938 91.62 212.166 92.274 212.166 93.102C212.166 94.098 211.842 94.86 211.194 95.388C210.558 95.916 209.616 96.18 208.368 96.18Z" fill="#2E89DD"/>
<defs>
<linearGradient id="paint0_linear_56_6" x1="76" y1="46" x2="322" y2="46" gradientUnits="userSpaceOnUse">
<stop stop-color="#2E89DD"/>
<stop offset="1" stop-color="#D22FED"/>
</linearGradient>
</defs>
</svg>
