<svg width="30" height="30" viewBox="0 0 30 30" fill="none" xmlns="http://www.w3.org/2000/svg">
<path fill-rule="evenodd" clip-rule="evenodd" d="M21.5386 0C26.5995 0 30 3.55256 30 8.83953V21.1605C30 26.4474 26.5995 30 21.5386 30H8.4614C3.40047 30 0 26.4474 0 21.1605V8.83953C0 3.55256 3.40047 0 8.4614 0H21.5386ZM21.5386 2.09302H8.4614C4.59349 2.09302 2.09302 4.74 2.09302 8.83953V21.1605C2.09302 25.26 4.59349 27.907 8.4614 27.907H21.5386C25.4079 27.907 27.907 25.26 27.907 21.1605V8.83953C27.907 4.74 25.4079 2.09302 21.5386 2.09302ZM15 8.82879C15.5777 8.82879 16.0465 9.29763 16.0465 9.8753V13.9395L20.116 13.9398C20.6937 13.9398 21.1626 14.4087 21.1626 14.9863C21.1626 15.564 20.6937 16.0328 20.116 16.0328L16.0465 16.0326V20.099C16.0465 20.6767 15.5777 21.1455 15 21.1455C14.4223 21.1455 13.9535 20.6767 13.9535 20.099V16.0326L9.88395 16.0328C9.30488 16.0328 8.83744 15.564 8.83744 14.9863C8.83744 14.4087 9.30488 13.9398 9.88395 13.9398L13.9535 13.9395V9.8753C13.9535 9.29763 14.4223 8.82879 15 8.82879Z" fill="#2E89DD"/>
</svg>
