<svg width="112" height="99" viewBox="0 0 112 99" fill="none" xmlns="http://www.w3.org/2000/svg">
<path d="M111.5 49.5C111.5 76.5058 86.7116 98.5 56 98.5C25.2884 98.5 0.5 76.5058 0.5 49.5C0.5 22.4942 25.2884 0.5 56 0.5C86.7116 0.5 111.5 22.4942 111.5 49.5Z" fill="white" stroke="#C4C4C4"/>
<path fill-rule="evenodd" clip-rule="evenodd" d="M55.7732 52.828L55.999 52.8281L56.5042 52.8298C60.3654 52.8552 69.1892 53.2453 69.1892 59.226C69.1892 65.1675 60.673 65.555 56.5644 65.5802L55.0422 65.5802C51.1808 65.5548 42.3552 65.1653 42.3552 59.192C42.3552 53.243 51.1808 52.8551 55.0422 52.8298L55.5474 52.8281C55.6257 52.828 55.7011 52.828 55.7732 52.828ZM55.7732 55.828C51.0212 55.828 45.3552 56.412 45.3552 59.192C45.3552 61.9091 50.683 62.5443 55.3389 62.5803L55.7732 62.582C60.5252 62.582 66.1892 62 66.1892 59.226C66.1892 56.418 60.5252 55.828 55.7732 55.828ZM71.6804 52.0164C76.5264 52.7424 77.5444 55.0184 77.5444 56.8004C77.5444 57.8884 77.1164 59.8744 74.2564 60.9644C74.0804 61.0304 73.9004 61.0624 73.7224 61.0624C73.1184 61.0624 72.5484 60.6944 72.3204 60.0964C72.0244 59.3224 72.4144 58.4544 73.1884 58.1604C74.5444 57.6444 74.5444 57.0744 74.5444 56.8004C74.5444 55.9244 73.4304 55.3124 71.2344 54.9844C70.4164 54.8604 69.8504 54.0984 69.9724 53.2764C70.0944 52.4564 70.8544 51.9104 71.6804 52.0164ZM41.572 53.2764C41.694 54.0984 41.128 54.8604 40.31 54.9844C38.114 55.3124 37 55.9244 37 56.8004C37 57.0744 37 57.6424 38.358 58.1604C39.132 58.4544 39.522 59.3224 39.226 60.0964C38.998 60.6944 38.428 61.0624 37.824 61.0624C37.646 61.0624 37.466 61.0304 37.29 60.9644C34.428 59.8724 34 57.8864 34 56.8004C34 55.0204 35.018 52.7424 39.866 52.0164C40.692 51.9124 41.448 52.4564 41.572 53.2764ZM55.7732 32C60.8132 32 64.9112 36.1 64.9112 41.138C64.9112 46.176 60.8132 50.276 55.7732 50.276H55.7192C53.2792 50.268 50.9932 49.312 49.2812 47.584C47.5652 45.858 46.6272 43.566 46.6371 41.132C46.6371 36.1 50.7352 32 55.7732 32ZM55.7732 35C52.3892 35 49.6372 37.754 49.6372 41.138C49.6312 42.778 50.2592 44.312 51.4092 45.47C52.5592 46.628 54.0912 47.27 55.7232 47.276L55.7732 48.776V47.276C59.1572 47.276 61.9112 44.524 61.9112 41.138C61.9112 37.754 59.1572 35 55.7732 35ZM68.1512 33.959C71.6672 34.537 74.2212 37.545 74.2212 41.111C74.2132 44.701 71.5312 47.781 67.9812 48.279C67.9112 48.289 67.8412 48.293 67.7732 48.293C67.0372 48.293 66.3952 47.751 66.2892 47.001C66.1752 46.179 66.7452 45.421 67.5672 45.307C69.6472 45.015 71.2172 43.211 71.2212 41.107C71.2212 39.021 69.7252 37.257 67.6632 36.919C66.8472 36.785 66.2932 36.013 66.4272 35.195C66.5632 34.377 67.3292 33.829 68.1512 33.959ZM45.1192 35.195C45.2532 36.013 44.6992 36.785 43.8832 36.919C41.8212 37.257 40.3252 39.021 40.3252 41.111C40.3292 43.211 41.8992 45.017 43.9772 45.307C44.7992 45.421 45.3692 46.179 45.2552 47.001C45.1492 47.751 44.5072 48.293 43.7712 48.293C43.7032 48.293 43.6332 48.289 43.5632 48.279C40.0132 47.781 37.3332 44.701 37.3252 41.115C37.3252 37.545 39.8792 34.537 43.3952 33.959C44.2372 33.827 44.9832 34.381 45.1192 35.195Z" fill="#2E89DD"/>
</svg>
