<svg width="112" height="99" viewBox="0 0 112 99" fill="none" xmlns="http://www.w3.org/2000/svg">
<path d="M111.5 49.5C111.5 76.5058 86.7116 98.5 56 98.5C25.2884 98.5 0.5 76.5058 0.5 49.5C0.5 22.4942 25.2884 0.5 56 0.5C86.7116 0.5 111.5 22.4942 111.5 49.5Z" fill="white" stroke="#C4C4C4"/>
<path d="M53.8842 54.9537C61.6823 54.9537 68.3408 56.19 68.3408 61.1372C68.3408 66.0823 61.725 67.3636 53.8842 67.3636C46.086 67.3636 39.4275 66.1273 39.4275 61.1822C39.4275 56.235 46.0433 54.9537 53.8842 54.9537ZM66.3524 51.9747C69.3337 51.9195 72.5389 52.3288 73.7232 52.6195C76.2324 53.1128 77.8828 54.1198 78.5665 55.5833C79.1445 56.7848 79.1445 58.1787 78.5665 59.3781C77.5205 61.6481 74.1485 62.3767 72.838 62.565C72.5673 62.606 72.3496 62.3706 72.3781 62.0984C73.0476 55.8084 67.722 52.8262 66.3443 52.1405C66.2853 52.1098 66.2731 52.0627 66.2792 52.0341C66.2832 52.0136 66.3077 51.9809 66.3524 51.9747ZM41.0877 51.9705L41.6491 51.9755C41.6939 51.9817 41.7162 52.0144 41.7203 52.0329C41.7264 52.0636 41.7142 52.1086 41.6572 52.1413C40.2775 52.827 34.9519 55.8093 35.6214 62.0971C35.6499 62.3714 35.4342 62.6047 35.1635 62.5659C33.853 62.3776 30.481 61.6489 29.435 59.3789C28.855 58.1774 28.855 56.7856 29.435 55.5841C30.1187 54.1206 31.7671 53.1136 34.2763 52.6182C35.4627 52.3296 38.6658 51.9203 41.6491 51.9755L41.0877 51.9705ZM53.8842 31C59.1935 31 63.4507 35.2779 63.4507 40.6201C63.4507 45.9603 59.1935 50.2423 53.8842 50.2423C48.5748 50.2423 44.3176 45.9603 44.3176 40.6201C44.3176 35.2779 48.5748 31 53.8842 31ZM66.8714 32.6043C71.9996 32.6043 76.0269 37.4573 74.6553 42.863C73.7293 46.5023 70.3777 48.9196 66.6434 48.8214C66.269 48.8111 65.9007 48.7763 65.5445 48.7149C65.2861 48.6699 65.1559 48.3772 65.3024 48.1602C66.7269 46.052 67.5388 43.516 67.5388 40.7937C67.5388 37.9527 66.6516 35.3041 65.1111 33.1324C65.0622 33.0648 65.0256 32.9605 65.0745 32.8827C65.1152 32.8192 65.1904 32.7865 65.2617 32.7701C65.7806 32.6637 66.3138 32.6043 66.8714 32.6043ZM41.1271 32.6041C41.6847 32.6041 42.2179 32.6635 42.7388 32.7699C42.808 32.7863 42.8854 32.8211 42.9261 32.8825C42.9729 32.9603 42.9383 33.0646 42.8894 33.1322C41.3489 35.3039 40.4617 37.9525 40.4617 40.7935C40.4617 43.5158 41.2736 46.0518 42.6981 48.16C42.8447 48.377 42.7144 48.6697 42.456 48.7147C42.0978 48.7782 41.7315 48.8109 41.3571 48.8212C37.6228 48.9194 34.2712 46.5021 33.3452 42.8628C31.9716 37.4571 35.9989 32.6041 41.1271 32.6041Z" fill="#ED5D2F"/>
</svg>
