<svg width="31" height="30" viewBox="0 0 31 30" fill="none" xmlns="http://www.w3.org/2000/svg">
<path fill-rule="evenodd" clip-rule="evenodd" d="M29.2897 19.3542C29.9173 19.4013 30.3869 19.9499 30.3398 20.5776L30.0511 24.3906C29.8125 27.5365 27.1575 30 24.004 30H6.37489C3.22141 30 0.56641 27.5365 0.32781 24.3906L0.0390576 20.5776C-0.00805467 19.9499 0.463068 19.4013 1.09072 19.3542C1.72142 19.3314 2.26549 19.7766 2.31412 20.4058L2.60135 24.2174C2.75029 26.1809 4.40682 27.7204 6.37489 27.7204H24.004C25.9721 27.7204 27.6301 26.1809 27.7775 24.2174L28.0663 20.4058C28.1149 19.7766 28.6726 19.3298 29.2897 19.3542ZM17.1502 0C19.4343 0 21.3266 1.71164 21.6116 3.91947L24.6047 3.9208C27.7901 3.9208 30.3798 6.51805 30.3798 9.71256V14.939C30.3798 15.3448 30.164 15.7186 29.816 15.9223C26.0647 18.1191 21.3128 19.4004 16.329 19.5713L16.3296 22.3047C16.3296 22.9339 15.8189 23.4446 15.1897 23.4446C14.5606 23.4446 14.0499 22.9339 14.0499 22.3047L14.0489 19.5717C9.07014 19.4023 4.31784 18.1207 0.563827 15.9223C0.214285 15.7186 0 15.3448 0 14.939V9.69737C0 6.51197 2.59725 3.9208 5.79024 3.9208L8.7679 3.91947C9.05291 1.71164 10.9452 0 13.2293 0H17.1502ZM24.6047 6.20042H5.79024C3.85408 6.20042 2.27962 7.7688 2.27962 9.69737V14.2749C5.88707 16.235 10.4349 17.3092 15.1686 17.3113L15.1897 17.3093L15.2066 17.3099L15.9302 17.3024C20.4071 17.1957 24.6778 16.1336 28.1002 14.2749V9.71256C28.1002 7.77488 26.5333 6.20042 24.6047 6.20042ZM17.1502 2.27962H13.2293C12.2059 2.27962 11.3421 2.97608 11.0869 3.91986H19.2925C19.0374 2.97608 18.1735 2.27962 17.1502 2.27962Z" fill="#2E89DD"/>
</svg>
